<svg width="61" height="24" viewBox="0 0 61 24" fill="none" xmlns="http://www.w3.org/2000/svg">
<path d="M0 18.6722V15.4244L9.91184 0.308268H12.7177V4.93229H11.0068L4.33429 15.1382V15.3143H11.252H18.1698V18.6722H0ZM11.1437 22.8559V17.6814L11.1893 16.2281V0.308268H15.1814V22.8559H11.1437Z" fill="white"/>
<path d="M30.4484 23.2853C28.5702 23.2853 26.9582 22.8265 25.6122 21.9091C24.2739 20.9843 23.2436 19.6521 22.5212 17.9126C21.8064 16.1657 21.449 14.0629 21.449 11.6041C21.4566 9.14529 21.8178 7.05347 22.5326 5.32863C23.255 3.59646 24.2853 2.27531 25.6236 1.36519C26.9696 0.455063 28.5778 0 30.4484 0C32.319 0 33.9272 0.455063 35.2731 1.36519C36.6191 2.27531 37.6494 3.59646 38.3642 5.32863C39.0866 7.06081 39.4478 9.15263 39.4478 11.6041C39.4478 14.0702 39.0866 16.1767 38.3642 17.9236C37.6494 19.6631 36.6191 20.9916 35.2731 21.9091C33.9348 22.8265 32.3266 23.2853 30.4484 23.2853ZM30.4484 19.8393C31.9084 19.8393 33.0604 19.1457 33.9044 17.7584C34.7561 16.3639 35.1819 14.3124 35.1819 11.6041C35.1819 9.8132 34.988 8.30856 34.6002 7.09017C34.2124 5.87177 33.6649 4.95431 32.9577 4.33777C32.2505 3.7139 31.4141 3.40196 30.4484 3.40196C28.996 3.40196 27.8478 4.09923 27.0038 5.49378C26.1597 6.88098 25.7339 8.91776 25.7263 11.6041C25.7187 13.4023 25.905 14.9143 26.2852 16.14C26.673 17.3658 27.2205 18.2906 27.9277 18.9145C28.6348 19.531 29.4751 19.8393 30.4484 19.8393Z" fill="white"/>
<path d="M42.8154 18.6722V15.4244L52.7272 0.308268H55.5331V4.93229H53.8222L47.1497 15.1382V15.3143H60.9852V18.6722H42.8154ZM53.9591 22.8559V17.6814L54.0047 16.2281V0.308268H57.9968V22.8559H53.9591Z" fill="white"/>
</svg>
