<svg width="62" height="64" viewBox="0 0 62 64" fill="none" xmlns="http://www.w3.org/2000/svg">
<path fill-rule="evenodd" clip-rule="evenodd" d="M24.5254 44.3942L27.4397 39.4731H49.9889L61.2635 58.5112L58.3492 63.4322L47.0746 44.3942H24.5254Z" fill="white"/>
<path fill-rule="evenodd" clip-rule="evenodd" d="M47.3736 48.421L42.8365 56.0824L38.4609 53.6195L42.9981 45.9581L45.9152 45.958L47.3736 48.421Z" fill="white"/>
<path fill-rule="evenodd" clip-rule="evenodd" d="M33.8238 13.5518L36.7381 18.4728L25.4635 37.5108H2.91427L0 32.5898H22.5492L33.8238 13.5518Z" fill="white"/>
<path fill-rule="evenodd" clip-rule="evenodd" d="M18.67 30.9675L14.1328 23.3061L18.5084 20.8433L23.0455 28.5047L21.5871 30.9676L18.67 30.9675Z" fill="white"/>
<path fill-rule="evenodd" clip-rule="evenodd" d="M57.8122 38.0761H51.9836L40.709 19.038L51.9836 0H57.8122L46.5376 19.038L57.8122 38.0761Z" fill="white"/>
<path fill-rule="evenodd" clip-rule="evenodd" d="M49.9107 16.5748H58.9852V21.5004H49.9107L48.4521 19.0376L49.9107 16.5748Z" fill="white"/>
<path fill-rule="evenodd" clip-rule="evenodd" d="M38.5465 23.7437L45.97 36.2788H31.123L38.5465 23.7437Z" fill="#FF0000"/>
</svg>
