<svg width="259" height="115" viewBox="0 0 259 115" fill="none" xmlns="http://www.w3.org/2000/svg">
<path fill-rule="evenodd" clip-rule="evenodd" d="M99.5928 28.75V86.25L49.7969 115L0 86.25V28.75L49.7969 0L99.5928 28.75ZM61.4219 39C59.2472 41.4738 57.4511 44.1765 56.0342 47.1084C54.403 50.4854 53.5879 54.0658 53.5879 57.8486C53.5879 60.8985 54.2473 64.0533 55.5654 67.3125C56.8835 70.5715 58.8026 73.7129 61.3232 76.7363H66.0938C64.6438 74.2363 63.6304 72.3185 63.0537 70.9834C62.1805 68.9546 61.4883 66.8148 60.9775 64.5635C60.4833 62.3122 60.2364 60.1133 60.2363 57.9668C60.2363 54.8515 60.6558 51.9058 61.4961 49.1309C62.3529 46.3429 63.9099 42.9659 66.167 39H61.4219ZM69.4541 39C71.7113 42.9659 73.2603 46.3429 74.1006 49.1309C74.9409 51.9058 75.3613 54.8515 75.3613 57.9668C75.3613 59.4981 75.2453 60.997 75.0146 62.4629C74.784 63.9157 74.4299 65.4542 73.9521 67.0771C73.4744 68.7 72.9556 70.1336 72.3955 71.377C71.8353 72.6204 70.8712 74.4067 69.5039 76.7363H74.2988C77.1324 73.3203 79.1667 69.8582 80.4023 66.3506C81.4898 63.2222 82.0342 60.2894 82.0342 57.5537C82.0341 54.3077 81.3419 51.1075 79.958 47.9531C78.5905 44.7986 76.6627 41.8142 74.1748 39H69.4541ZM44.7148 43.5488C43.3147 43.5488 41.9974 43.875 40.7646 44.5283C39.5319 45.1816 38.3827 46.1701 37.3174 47.4922C36.5869 46.1701 35.6512 45.1816 34.5098 44.5283C33.3684 43.8751 32.021 43.5488 30.4688 43.5488C27.5468 43.5489 25.0285 44.8636 22.9131 47.4922V45.7998L19.9561 44.1084C19.3501 44.7529 17 47.4922 17 47.4922V71.8271H23.415V56.8477C23.415 54.4681 23.5822 52.7649 23.917 51.7383C24.267 50.7119 24.8377 49.9262 25.6289 49.3818C26.4203 48.8374 27.3115 48.5654 28.3008 48.5654C29.1224 48.5655 29.7695 48.736 30.2412 49.0781C30.7281 49.4203 31.0852 49.9418 31.3135 50.6416C31.5418 51.3416 31.6562 52.8968 31.6562 55.3076V71.8271H38.0713V56.9873C38.0713 54.6543 38.2466 52.9511 38.5967 51.8779C38.9467 50.7893 39.5173 49.9652 40.3086 49.4053C41.1 48.8453 41.9448 48.5654 42.8428 48.5654C44.0754 48.5655 44.9885 49.0317 45.582 49.9648C46.0234 50.6804 46.2441 52.2671 46.2441 54.7246V71.8271H52.6592V53.0449C52.6592 50.681 52.4383 48.9698 51.9971 47.9121C51.3883 46.4811 50.4671 45.4 49.2344 44.6689C48.0017 43.9224 46.4953 43.5489 44.7148 43.5488Z" fill="white"/>
<path d="M111 42.2974L116.07 37.8242L121.574 39.9644L121.605 41.8838C126.16 37.0694 136.559 36.4227 140.239 43.2866C141.21 42.0689 145.219 38.4988 149.824 38.3285C161.661 37.8915 160.802 44.8797 160.802 46.2935C160.802 46.9156 160.821 76.969 160.821 76.969H151.925C151.977 69.7685 151.926 49.5594 151.925 49.5458C151.386 43.5352 141.404 47.0794 141.17 49.5458V76.969H131.575L131.537 49.5458C131.319 43.4419 121.778 46.8723 120.596 49.5458V76.969H111.001V42.2961L111 42.2974Z" fill="white"/>
<path d="M177.459 51.0841L168.647 49.438C169.715 45.5971 171.325 37.4201 183.648 37.8398C198.955 38.3618 198.848 45.5346 198.848 47.4602C198.848 49.3859 198.841 74.1601 198.841 76.0857H189.908L189.807 72.7173C189.807 76.2956 166.82 82.8767 166.82 65.5034C166.82 54.171 177.658 53.7592 181.44 53.7592C185.918 53.7592 187.304 53.6712 189.133 53.6712C189.133 51.5598 189.824 46.9044 185.185 45.7881C184.025 45.5092 178.535 45.0582 177.459 51.0835L177.459 51.0841ZM189.725 60.3221C189.725 60.3221 185.222 60.3201 182.484 60.3201C179.015 60.3201 176.133 62.2256 176.133 64.8987C176.133 72.1992 189.74 68.7141 189.74 63.9857C189.74 62.7664 189.725 63.2174 189.725 60.3221Z" fill="white"/>
<path d="M204.848 76.969V69.9089H211.066V45.8422L204.863 45.8348V37.8242H220.861V76.969H204.848Z" fill="white"/>
<path d="M213.744 34.2657C217.675 34.2657 220.861 31.0792 220.861 27.1485C220.861 23.2177 217.675 20.0312 213.744 20.0312C209.813 20.0312 206.627 23.2177 206.627 27.1485C206.627 31.0792 209.813 34.2657 213.744 34.2657Z" fill="white"/>
<path d="M226.862 42.2974L232.027 37.8242L237.633 39.9643L237.664 41.8837C240.576 39.2451 246.554 37.4682 251.581 38.669C258.479 40.3165 258.89 46.0694 258.89 46.0694V76.969H248.468L248.429 49.8415C248.494 43.2697 237.284 46.9058 237.284 50.0959V76.969H226.863V42.2967L226.862 42.2974Z" fill="white"/>
</svg>
