<svg width="103" height="86" viewBox="0 0 103 86" fill="none" xmlns="http://www.w3.org/2000/svg">
<g filter="url(#filter0_dd_1225_359)">
<path d="M52.595 45.1662L26.7796 68.2723C26.4971 68.5243 26.1681 68.7178 25.8113 68.8418C25.4545 68.9657 25.077 69.0177 24.7003 68.9947C24.3236 68.9717 23.955 68.8743 23.6157 68.7079C23.2764 68.5415 22.9729 68.3095 22.7227 68.025C22.4724 67.7405 22.2803 67.4092 22.1572 67.05C22.0341 66.6907 21.9824 66.3106 22.0053 65.9312C22.0281 65.5519 22.1248 65.1808 22.2901 64.8391C22.4553 64.4975 22.6858 64.1919 22.9683 63.9399L46.3885 43L22.9719 22.0601C22.6894 21.8081 22.4589 21.5025 22.2937 21.1609C22.1284 20.8192 22.0316 20.4481 22.0088 20.0688C21.986 19.6894 22.0376 19.3093 22.1607 18.95C22.2838 18.5908 22.476 18.2595 22.7263 17.975C22.9765 17.6905 23.28 17.4585 23.6193 17.2921C23.9586 17.1257 24.3271 17.0283 24.7039 17.0053C25.0806 16.9823 25.4581 17.0343 25.8149 17.1582C26.1717 17.2822 26.5007 17.4757 26.7832 17.7277L52.5985 40.8338C52.9038 41.1048 53.1482 41.4382 53.3156 41.8117C53.4831 42.1851 53.5697 42.5902 53.5697 43C53.5697 43.4098 53.4831 43.8149 53.3156 44.1883C53.1482 44.5618 52.9038 44.8952 52.5985 45.1662H52.595ZM78.1316 63.2179H53.5595C52.7987 63.2179 52.0691 63.5221 51.5312 64.0638C50.9933 64.6055 50.6911 65.3401 50.6911 66.1061C50.6911 66.8721 50.9933 67.6068 51.5312 68.1484C52.0691 68.6901 52.7987 68.9944 53.5595 68.9944H78.1316C78.8924 68.9944 79.622 68.6901 80.1599 68.1484C80.6978 67.6068 81 66.8721 81 66.1061C81 65.3401 80.6978 64.6055 80.1599 64.0638C79.622 63.5221 78.8924 63.2179 78.1316 63.2179Z" fill="white"/>
<path d="M24.6738 16.5059C25.1162 16.4789 25.5596 16.5401 25.9785 16.6855C26.3977 16.8312 26.7847 17.0588 27.1162 17.3545V17.3555L52.9307 40.46L53.0615 40.583C53.359 40.877 53.5997 41.2243 53.7715 41.6074C53.9678 42.0453 54.0693 42.5198 54.0693 43C54.0693 43.4802 53.9678 43.9547 53.7715 44.3926C53.5752 44.8305 53.2889 45.2219 52.9307 45.54L52.7881 45.666H52.7871L27.1133 68.6445L27.1123 68.6455C26.7808 68.9412 26.3947 69.1688 25.9756 69.3145C25.5565 69.4601 25.1126 69.5211 24.6699 69.4941C24.2272 69.4672 23.794 69.3526 23.3955 69.1572C22.9971 68.9619 22.6412 68.6891 22.3477 68.3555C22.0541 68.0218 21.8288 67.6329 21.6846 67.2119C21.5403 66.791 21.4792 66.3457 21.5059 65.9014C21.5326 65.457 21.6462 65.0216 21.8398 64.6211C22.0335 64.2207 22.3043 63.8621 22.6357 63.5664L45.6377 42.999L22.6387 22.4326C22.3075 22.1371 22.0373 21.7791 21.8438 21.3789C21.6501 20.9784 21.5365 20.543 21.5098 20.0986C21.4831 19.6543 21.5433 19.209 21.6875 18.7881C21.8318 18.3671 22.057 17.9782 22.3506 17.6445C22.6442 17.3108 23.0009 17.0382 23.3994 16.8428C23.7979 16.6475 24.2312 16.5328 24.6738 16.5059ZM78.1318 62.7178C79.0262 62.7178 79.8833 63.0762 80.5146 63.7119C81.1458 64.3476 81.5 65.209 81.5 66.1064C81.4999 67.0038 81.1459 67.8654 80.5146 68.501C79.8833 69.1367 79.0262 69.4941 78.1318 69.4941H53.5596C52.6652 69.4941 51.8082 69.1366 51.1768 68.501C50.5455 67.8654 50.1915 67.0038 50.1914 66.1064C50.1914 65.209 50.5455 64.3476 51.1768 63.7119C51.8082 63.0761 52.6651 62.7178 53.5596 62.7178H78.1318Z" stroke="white"/>
</g>
<defs>
<filter id="filter0_dd_1225_359" x="0" y="0" width="103" height="86" filterUnits="userSpaceOnUse" color-interpolation-filters="sRGB">
<feFlood flood-opacity="0" result="BackgroundImageFix"/>
<feColorMatrix in="SourceAlpha" type="matrix" values="0 0 0 0 0 0 0 0 0 0 0 0 0 0 0 0 0 0 127 0" result="hardAlpha"/>
<feOffset dx="5"/>
<feGaussianBlur stdDeviation="8"/>
<feComposite in2="hardAlpha" operator="out"/>
<feColorMatrix type="matrix" values="0 0 0 0 1 0 0 0 0 0 0 0 0 0 0.788235 0 0 0 1 0"/>
<feBlend mode="normal" in2="BackgroundImageFix" result="effect1_dropShadow_1225_359"/>
<feColorMatrix in="SourceAlpha" type="matrix" values="0 0 0 0 0 0 0 0 0 0 0 0 0 0 0 0 0 0 127 0" result="hardAlpha"/>
<feOffset dx="-5"/>
<feGaussianBlur stdDeviation="8"/>
<feComposite in2="hardAlpha" operator="out"/>
<feColorMatrix type="matrix" values="0 0 0 0 0 0 0 0 0 0.917647 0 0 0 0 0.917647 0 0 0 1 0"/>
<feBlend mode="normal" in2="effect1_dropShadow_1225_359" result="effect2_dropShadow_1225_359"/>
<feBlend mode="normal" in="SourceGraphic" in2="effect2_dropShadow_1225_359" result="shape"/>
</filter>
</defs>
</svg>
