<svg width="68" height="68" viewBox="0 0 68 68" fill="none" xmlns="http://www.w3.org/2000/svg">
<path d="M44.6988 25.5L34 68L23.3012 25.5H44.6988ZM31.0511 0L23.7434 19.8333H44.2566L36.9489 0H31.0511ZM50.3669 19.8333H68C67.7351 19.025 67.3479 18.2608 66.8515 17.5667L56.7126 3.5615C55.9159 2.46024 54.8643 1.56256 53.6452 0.943105C52.4261 0.323651 51.0748 0.000320554 49.7036 0L43.0592 0L50.3669 19.8333ZM50.6109 25.5L42.6716 57.5167L66.616 27.7667C67.1543 27.0803 67.5815 26.3156 67.8823 25.5H50.6109ZM17.3891 25.5H0.117727C0.423378 26.3157 0.854336 27.0802 1.39549 27.7667L25.3284 57.5167L17.3891 25.5ZM17.6331 19.8333L24.9408 0H18.2964C16.9252 0.000320554 15.5739 0.323651 14.3548 0.943105C13.1357 1.56256 12.0841 2.46024 11.2874 3.5615L1.14855 17.5667C0.651019 18.2601 0.263705 19.0245 0 19.8333H17.6331Z" fill="white"/>
</svg>
