<svg width="69" height="54" viewBox="0 0 69 54" fill="none" xmlns="http://www.w3.org/2000/svg">
<path d="M34.5004 38.5568C40.8493 38.5568 45.9961 33.3826 45.9961 26.9999C45.9961 20.6172 40.8493 15.4429 34.5004 15.4429C28.1515 15.4429 23.0047 20.6172 23.0047 26.9999C23.0047 33.3826 28.1515 38.5568 34.5004 38.5568Z" fill="white"/>
<path d="M66.8922 19.5429C62.4347 12.2446 52.2954 0 34.5 0C16.7046 0 6.56531 12.2446 2.10783 19.5429C-0.702611 24.1128 -0.702611 29.8871 2.10783 34.4571C6.56531 41.7554 16.7046 54 34.5 54C52.2954 54 62.4347 41.7554 66.8922 34.4571C69.7026 29.8871 69.7026 24.1128 66.8922 19.5429ZM34.5 44.3354C24.9767 44.3354 17.2564 36.574 17.2564 26.9999C17.2564 17.4259 24.9767 9.6645 34.5 9.6645C44.0233 9.6645 51.7436 17.4259 51.7436 26.9999C51.7341 36.57 44.0194 44.3257 34.5 44.3354Z" fill="white"/>
</svg>
