<svg width="53" height="57" viewBox="0 0 53 57" fill="none" xmlns="http://www.w3.org/2000/svg">
<path d="M49.6553 0.00488281H49.6602L49.6619 2.54102L52.3943 2.54102L52.3943 2.5459H52.3992L52.4078 14.8613H52.4029L52.4029 14.8662L39.3072 14.8662L39.3087 17.0068H47.1251L47.1251 17.0117H47.13L47.132 19.9443H47.1271L47.1271 19.9492H36.7697L36.773 24.6309H42.0464L42.0464 24.6357H42.0523L42.0563 30.5L42.0505 30.5L42.0505 30.5049H38.9225L38.9225 30.5H38.9177L38.9158 27.7685H36.9704L36.9768 36.9512H36.9719L36.9719 36.956H34.2395L34.2422 40.8603H34.2373L34.2373 40.8652L31.7002 40.8652L31.7029 44.7471L31.6971 43.4072L28.9647 43.416L28.9716 53.3662H31.704L31.704 53.3711H31.7089L31.7109 56.3037H31.7061L31.7061 56.3086H25.8399L25.8399 56.3037H25.835L25.8297 48.6846H23.2926L23.2926 48.6797H23.2877L23.2858 45.9482H21.3405L21.3424 48.6797H21.3375L21.3375 48.6846L18.6051 48.6846L18.6068 51.2217H18.602L18.602 51.2266H16.0648L16.0663 53.3662H18.6034L18.6034 53.3711H18.6083L18.6104 56.3037H18.6055L18.6055 56.3086H12.9356L12.9356 56.3037L12.9297 56.3037L12.9225 45.9482H10.3864L10.3864 45.9433H10.3815L10.3797 43.4072H7.84262L7.84262 43.4023H7.83774L7.83584 40.6699H5.29873L5.29873 40.665H5.29385L5.2921 38.1465H2.55968L2.55967 38.1416H2.55479L2.55302 35.5879H0.015909L0.0159057 35.583H0.0110228L-0.000102217 19.5527H0.0047806L0.00477721 19.5478L2.93739 19.5478L2.9374 19.5527H2.94228L2.9458 24.6309H5.67823L5.67823 24.6357L5.68409 24.6357L5.68585 27.1719H8.22198L8.22199 27.1768H8.22687L8.22876 29.9082H12.9114L12.9096 27.3721H12.9155L12.9155 27.3672H15.4702L15.4683 24.6357H15.4732L15.4731 24.6309L19.3608 24.6309L19.3591 22.0947H19.364L19.364 22.0898H23.2692L23.2675 19.5527H23.2724L23.2724 19.5478H26.0048L25.993 2.5459H25.9979L25.9979 2.54102H28.535L28.5332 0.00488281L28.5381 0.00488281L28.5381 0L49.6553 0L49.6553 0.00488281ZM31.0827 3.71387L31.0827 3.71875H31.0778L31.0801 7.04199H31.085L31.085 7.04687H34.4092L34.4092 7.04199H34.4141L34.4118 3.71875H34.4069L34.4069 3.71387L31.0827 3.71387Z" fill="white"/>
</svg>
