<svg width="89" height="83" viewBox="0 0 89 83" fill="none" xmlns="http://www.w3.org/2000/svg">
<g filter="url(#filter0_f_1080_327)">
<path d="M16.6002 68.8998L14.4659 65.6758L13.9998 44.4032L16.6798 42.6291L19.7184 47.2193L18.0843 48.3011L18.4177 62.6511L18.5334 62.826L25.1408 58.4521L31.7483 54.0781L33.9549 57.4114L16.6002 68.8998ZM29.9931 66.0069L26.5928 60.8703L25.6814 59.3988L15.22 43.5955L19.033 41.0714L33.8497 63.4539L29.9931 66.0069Z" fill="url(#paint0_linear_1080_327)"/>
<path d="M48.714 54.2272C46.92 55.4147 45.0788 55.9786 43.1904 55.9189C41.3044 55.847 39.4449 55.1761 37.6119 53.906C35.7812 52.6239 34.058 50.7625 32.4423 48.3216C30.8338 45.876 29.8042 43.5711 29.3535 41.407C28.9052 39.2308 29.0211 37.2678 29.7013 35.5182C30.3888 33.7637 31.6259 32.2951 33.4125 31.1124C35.1992 29.9297 37.0343 29.3645 38.9179 29.417C40.8015 29.4695 42.6538 30.1295 44.4748 31.397C46.303 32.6598 48.0226 34.5079 49.6336 36.9414C51.2541 39.3895 52.2934 41.709 52.7513 43.8998C53.2117 46.0785 53.1006 48.0487 52.4179 49.8105C51.7426 51.5674 50.5079 53.0397 48.714 54.2272ZM46.4495 50.8064C47.844 49.8833 48.4885 48.4664 48.3831 46.5557C48.2802 44.6329 47.3388 42.3272 45.5591 39.6386C44.3822 37.8609 43.2083 36.4898 42.0372 35.5256C40.8662 34.5613 39.7404 33.9967 38.6598 33.8318C37.5743 33.6596 36.5704 33.8788 35.6481 34.4894C34.2608 35.4077 33.6223 36.8259 33.7326 38.7439C33.838 40.6546 34.7697 42.9457 36.5277 45.6172C37.7021 47.4071 38.8736 48.7902 40.0422 49.7666C41.2181 50.7381 42.3487 51.31 43.4341 51.4822C44.5147 51.6471 45.5198 51.4218 46.4495 50.8064Z" fill="url(#paint1_linear_1080_327)"/>
<path d="M57.4948 41.8286L55.3606 38.6045L54.8945 17.332L57.5745 15.5579L60.6131 20.1481L58.9789 21.2298L59.3123 35.5799L59.4281 35.7547L72.6429 27.0069L74.8495 30.3402L57.4948 41.8286ZM70.8878 38.9357L67.4874 33.799L66.576 32.3276L56.1146 16.5243L59.9277 14.0001L74.7444 36.3827L70.8878 38.9357Z" fill="url(#paint2_linear_1080_327)"/>
</g>
<g filter="url(#filter1_f_1080_327)">
<path d="M16.649 68.9736L14.5148 65.7495L14.0487 44.477L16.7287 42.7029L19.7673 47.293L18.1331 48.3748L18.4665 62.7249L18.5823 62.8997L25.1897 58.5258L31.7971 54.1518L34.0037 57.4852L16.649 68.9736ZM30.042 66.0807L26.6416 60.944L25.7302 59.4726L15.2688 43.6692L19.0818 41.1451L33.8986 63.5277L30.042 66.0807Z" fill="url(#paint3_linear_1080_327)"/>
<path d="M48.7628 54.3009C46.9689 55.4885 45.1277 56.0524 43.2393 55.9926C41.3533 55.9208 39.4937 55.2498 37.6607 53.9798C35.8301 52.6976 34.1069 50.8362 32.4911 48.3954C30.8826 45.9498 29.853 43.6449 29.4023 41.4807C28.954 39.3045 29.07 37.3415 29.7502 35.5919C30.4376 33.8374 31.6747 32.3689 33.4614 31.1861C35.248 30.0034 37.0832 29.4383 38.9668 29.4907C40.8504 29.5432 42.7027 30.2032 44.5236 31.4708C46.3519 32.7335 48.0715 34.5817 49.6824 37.0152C51.303 39.4633 52.3422 41.7827 52.8002 43.9735C53.2605 46.1522 53.1494 48.1225 52.4668 49.8842C51.7914 51.6411 50.5567 53.1134 48.7628 54.3009ZM46.4983 50.8802C47.8928 49.957 48.5373 48.5401 48.4319 46.6294C48.329 44.7066 47.3876 42.4009 45.6079 39.7124C44.4311 37.9346 43.2571 36.5636 42.0861 35.5993C40.915 34.635 39.7892 34.0704 38.7086 33.9055C37.6232 33.7334 36.6193 33.9526 35.6969 34.5632C34.3097 35.4815 33.6712 36.8996 33.7814 38.8176C33.8868 40.7284 34.8185 43.0195 36.5765 45.691C37.7509 47.4808 38.9224 48.8639 40.091 49.8403C41.2669 50.8119 42.3975 51.3837 43.483 51.5559C44.5636 51.7208 45.5687 51.4956 46.4983 50.8802Z" fill="url(#paint4_linear_1080_327)"/>
<path d="M57.5436 41.9023L55.4094 38.6782L54.9433 17.4057L57.6233 15.6316L60.6619 20.2218L59.0277 21.3035L59.3611 35.6536L59.4769 35.8285L72.6917 27.0806L74.8983 30.4139L57.5436 41.9023ZM70.9366 39.0094L67.5363 33.8728L66.6249 32.4013L56.1635 16.598L59.9765 14.0739L74.7932 36.4564L70.9366 39.0094Z" fill="url(#paint5_linear_1080_327)"/>
</g>
<path d="M19.6086 65.4087L17.8159 62.7005L17.7369 44.6247L20.0766 43.0759L22.629 46.9316L21.2024 47.876L21.272 60.0694L21.3693 60.2163L27.1376 56.3977L32.906 52.5792L34.7595 55.3792L19.6086 65.4087ZM31.2101 62.7461L28.3539 58.4313L27.5897 57.1943L18.8021 43.9195L22.131 41.7159L34.577 60.5173L31.2101 62.7461Z" fill="white"/>
<path d="M47.5444 52.4481C45.9783 53.4849 44.3808 53.9922 42.7521 53.9701C41.1257 53.9377 39.5312 53.3956 37.9686 52.3438C36.4084 51.2818 34.9496 49.7256 33.5924 47.6753C32.2415 45.6208 31.388 43.6772 31.032 41.8444C30.6782 40.0013 30.8081 38.3309 31.4216 36.8333C32.0415 35.3314 33.1314 34.0642 34.6912 33.0317C36.251 31.9991 37.8432 31.4909 39.4679 31.5068C41.0926 31.5228 42.681 32.0557 44.2331 33.1055C45.7916 34.1512 47.2475 35.6961 48.6006 37.7402C49.9619 39.7966 50.8235 41.7525 51.1854 43.6079C51.5496 45.4529 51.4237 47.1294 50.8079 48.6374C50.1984 50.1411 49.1105 51.4114 47.5444 52.4481ZM45.6422 49.5747C46.8596 48.7688 47.4374 47.5545 47.3755 45.9319C47.3158 44.2989 46.5385 42.3533 45.0436 40.0949C44.055 38.6016 43.0628 37.454 42.0669 36.6521C41.071 35.8502 40.108 35.3874 39.178 35.2636C38.2439 35.1338 37.3743 35.3353 36.569 35.8684C35.358 36.6701 34.7854 37.8853 34.8514 39.5141C34.9133 41.1367 35.6825 43.0701 37.159 45.3143C38.1453 46.818 39.1352 47.9759 40.1288 48.7881C41.1288 49.5961 42.0958 50.0651 43.0298 50.1949C43.9598 50.3187 44.8306 50.1119 45.6422 49.5747Z" fill="white"/>
<path d="M55.3103 41.7751L53.5175 39.0669L53.4386 20.9911L55.7783 19.4422L58.3307 23.298L56.904 24.2424L56.9737 36.4357L57.0709 36.5826L68.6077 28.9456L70.4612 31.7456L55.3103 41.7751ZM66.9118 39.1124L64.0555 34.7977L63.2914 33.5607L54.5038 20.2859L57.8326 18.0823L70.2787 36.8837L66.9118 39.1124Z" fill="white"/>
<defs>
<filter id="filter0_f_1080_327" x="0" y="0" width="88.8496" height="82.8999" filterUnits="userSpaceOnUse" color-interpolation-filters="sRGB">
<feFlood flood-opacity="0" result="BackgroundImageFix"/>
<feBlend mode="normal" in="SourceGraphic" in2="BackgroundImageFix" result="shape"/>
<feGaussianBlur stdDeviation="7" result="effect1_foregroundBlur_1080_327"/>
</filter>
<filter id="filter1_f_1080_327" x="7.04883" y="7.07373" width="74.8496" height="68.8999" filterUnits="userSpaceOnUse" color-interpolation-filters="sRGB">
<feFlood flood-opacity="0" result="BackgroundImageFix"/>
<feBlend mode="normal" in="SourceGraphic" in2="BackgroundImageFix" result="shape"/>
<feGaussianBlur stdDeviation="3.5" result="effect1_foregroundBlur_1080_327"/>
</filter>
<linearGradient id="paint0_linear_1080_327" x1="33.4547" y1="31.0844" x2="48.7562" y2="54.1993" gradientUnits="userSpaceOnUse">
<stop stop-color="#00A29A"/>
<stop offset="1" stop-color="#A50080"/>
</linearGradient>
<linearGradient id="paint1_linear_1080_327" x1="33.4547" y1="31.0844" x2="48.7562" y2="54.1993" gradientUnits="userSpaceOnUse">
<stop stop-color="#00A29A"/>
<stop offset="1" stop-color="#A50080"/>
</linearGradient>
<linearGradient id="paint2_linear_1080_327" x1="33.4547" y1="31.0844" x2="48.7562" y2="54.1993" gradientUnits="userSpaceOnUse">
<stop stop-color="#00A29A"/>
<stop offset="1" stop-color="#A50080"/>
</linearGradient>
<linearGradient id="paint3_linear_1080_327" x1="33.5036" y1="31.1582" x2="48.805" y2="54.273" gradientUnits="userSpaceOnUse">
<stop stop-color="#00A29A"/>
<stop offset="1" stop-color="#A50080"/>
</linearGradient>
<linearGradient id="paint4_linear_1080_327" x1="33.5036" y1="31.1582" x2="48.805" y2="54.273" gradientUnits="userSpaceOnUse">
<stop stop-color="#00A29A"/>
<stop offset="1" stop-color="#A50080"/>
</linearGradient>
<linearGradient id="paint5_linear_1080_327" x1="33.5036" y1="31.1582" x2="48.805" y2="54.273" gradientUnits="userSpaceOnUse">
<stop stop-color="#00A29A"/>
<stop offset="1" stop-color="#A50080"/>
</linearGradient>
</defs>
</svg>
