<svg width="223" height="142" viewBox="0 0 223 142" fill="none" xmlns="http://www.w3.org/2000/svg">
<g clip-path="url(#paint0_diamond_878_392_clip_path)" data-figma-skip-parse="true"><g transform="matrix(0.00049989 0.00100002 5.55442e-05 -2.77656e-05 78.2854 70.5574)"><rect x="0" y="0" width="41358.1" height="744609" fill="url(#paint0_diamond_878_392)" opacity="1" shape-rendering="crispEdges"/><rect x="0" y="0" width="41358.1" height="744609" transform="scale(1 -1)" fill="url(#paint0_diamond_878_392)" opacity="1" shape-rendering="crispEdges"/><rect x="0" y="0" width="41358.1" height="744609" transform="scale(-1 1)" fill="url(#paint0_diamond_878_392)" opacity="1" shape-rendering="crispEdges"/><rect x="0" y="0" width="41358.1" height="744609" transform="scale(-1)" fill="url(#paint0_diamond_878_392)" opacity="1" shape-rendering="crispEdges"/></g></g><path d="M74.7854 39.113C76.9512 37.8626 79.6196 37.8626 81.7854 39.113L103.767 51.8041C105.933 53.0545 107.267 55.3654 107.267 57.8663V83.2484C107.267 85.7493 105.933 88.0602 103.767 89.3106L81.7854 102.002C79.6196 103.252 76.9512 103.252 74.7854 102.002L52.8038 89.3106C50.638 88.0602 49.3038 85.7493 49.3038 83.2484V57.8663C49.3038 55.3654 50.638 53.0545 52.8038 51.8041L74.7854 39.113Z" data-figma-gradient-fill="{&#34;type&#34;:&#34;GRADIENT_DIAMOND&#34;,&#34;stops&#34;:[{&#34;color&#34;:{&#34;r&#34;:1.0,&#34;g&#34;:1.0,&#34;b&#34;:1.0,&#34;a&#34;:0.0},&#34;position&#34;:0.0},{&#34;color&#34;:{&#34;r&#34;:1.0,&#34;g&#34;:1.0,&#34;b&#34;:1.0,&#34;a&#34;:1.0},&#34;position&#34;:1.0}],&#34;stopsVar&#34;:[{&#34;color&#34;:{&#34;r&#34;:1.0,&#34;g&#34;:1.0,&#34;b&#34;:1.0,&#34;a&#34;:0.0},&#34;position&#34;:0.0},{&#34;color&#34;:{&#34;r&#34;:1.0,&#34;g&#34;:1.0,&#34;b&#34;:1.0,&#34;a&#34;:1.0},&#34;position&#34;:1.0}],&#34;transform&#34;:{&#34;m00&#34;:0.99977970123291016,&#34;m01&#34;:0.11108841001987457,&#34;m02&#34;:77.729957580566406,&#34;m10&#34;:2.0000312328338623,&#34;m11&#34;:-0.055531106889247894,&#34;m12&#34;:69.585105895996094},&#34;opacity&#34;:1.0,&#34;blendMode&#34;:&#34;NORMAL&#34;,&#34;visible&#34;:true}"/>
<g filter="url(#filter0_d_878_392)">
<path d="M61.6637 62.8771L63.3274 63.8297V64.7823C64.5179 63.302 65.9353 62.5618 67.5797 62.5618C68.4533 62.5618 69.2113 62.7457 69.8537 63.1136C70.496 63.4815 71.0227 64.0378 71.4338 64.7823C72.0334 64.0378 72.68 63.4815 73.3737 63.1136C74.0675 62.7457 74.8083 62.5618 75.5963 62.5618C76.5983 62.5618 77.4462 62.772 78.14 63.1925C78.8337 63.6042 79.3519 64.213 79.6945 65.0188C79.9429 65.6145 80.067 66.5781 80.067 67.9095V78.4872H76.457V68.8556C76.457 67.4715 76.3328 66.5781 76.0845 66.1751C75.7504 65.6495 75.2366 65.3868 74.5428 65.3868C74.0375 65.3868 73.5622 65.5444 73.1168 65.8598C72.6714 66.1751 72.3503 66.6394 72.1533 67.2526C71.9563 67.857 71.8578 68.8162 71.8578 70.1301V78.4872H68.2478V69.1841C68.2478 67.8263 68.1835 66.9503 68.0551 66.5562C67.9266 66.162 67.7253 65.8685 67.4513 65.6758C67.1858 65.4831 66.8218 65.3868 66.3593 65.3868C65.8026 65.3868 65.3015 65.54 64.8562 65.8466C64.4108 66.1532 64.0896 66.5956 63.8926 67.1737C63.7042 67.7519 63.61 68.711 63.61 70.0513V78.4872H60V64.7823C60 64.7823 61.3227 63.2401 61.6637 62.8771Z" fill="white"/>
<path d="M61.6637 62.8771L63.3274 63.8297V64.7823C64.5179 63.302 65.9353 62.5618 67.5797 62.5618C68.4533 62.5618 69.2113 62.7457 69.8537 63.1136C70.496 63.4815 71.0227 64.0378 71.4338 64.7823C72.0334 64.0378 72.68 63.4815 73.3737 63.1136C74.0675 62.7457 74.8083 62.5618 75.5963 62.5618C76.5983 62.5618 77.4462 62.772 78.14 63.1925C78.8337 63.6042 79.3519 64.213 79.6945 65.0188C79.9429 65.6145 80.067 66.5781 80.067 67.9095V78.4872H76.457V68.8556C76.457 67.4715 76.3328 66.5781 76.0845 66.1751C75.7504 65.6495 75.2366 65.3868 74.5428 65.3868C74.0375 65.3868 73.5622 65.5444 73.1168 65.8598C72.6714 66.1751 72.3503 66.6394 72.1533 67.2526C71.9563 67.857 71.8578 68.8162 71.8578 70.1301V78.4872H68.2478V69.1841C68.2478 67.8263 68.1835 66.9503 68.0551 66.5562C67.9266 66.162 67.7253 65.8685 67.4513 65.6758C67.1858 65.4831 66.8218 65.3868 66.3593 65.3868C65.8026 65.3868 65.3015 65.54 64.8562 65.8466C64.4108 66.1532 64.0896 66.5956 63.8926 67.1737C63.7042 67.7519 63.61 68.711 63.61 70.0513V78.4872H60V64.7823C60 64.7823 61.3227 63.2401 61.6637 62.8771Z" fill="url(#paint1_radial_878_392)"/>
<path d="M87.6273 81.252H84.943C83.5244 79.5492 82.4442 77.7801 81.7025 75.9446C80.9607 74.1091 80.5898 72.3325 80.5898 70.615C80.5898 68.4846 81.0488 66.4685 81.9667 64.5666C82.7641 62.9154 83.7748 61.3932 84.9987 60H87.669C86.3987 62.2336 85.5225 64.1354 85.0404 65.7055C84.5675 67.2683 84.3311 68.9269 84.3311 70.6813C84.3311 71.8902 84.4702 73.1287 84.7483 74.3965C85.0357 75.6644 85.4252 76.8697 85.9166 78.0123C86.2411 78.7642 86.8113 79.8441 87.6273 81.252Z" fill="white"/>
<path d="M87.6273 81.252H84.943C83.5244 79.5492 82.4442 77.7801 81.7025 75.9446C80.9607 74.1091 80.5898 72.3325 80.5898 70.615C80.5898 68.4846 81.0488 66.4685 81.9667 64.5666C82.7641 62.9154 83.7748 61.3932 84.9987 60H87.669C86.3987 62.2336 85.5225 64.1354 85.0404 65.7055C84.5675 67.2683 84.3311 68.9269 84.3311 70.6813C84.3311 71.8902 84.4702 73.1287 84.7483 74.3965C85.0357 75.6644 85.4252 76.8697 85.9166 78.0123C86.2411 78.7642 86.8113 79.8441 87.6273 81.252Z" fill="url(#paint2_radial_878_392)"/>
<path d="M89.5466 81.252C90.3161 79.9399 90.8585 78.9337 91.1738 78.2334C91.489 77.5331 91.7811 76.7259 92.05 75.8119C92.3189 74.8978 92.5182 74.0317 92.648 73.2134C92.7778 72.3878 92.8427 71.5438 92.8427 70.6813C92.8427 68.9269 92.6063 67.2683 92.1334 65.7055C91.6606 64.1354 90.789 62.2336 89.5187 60H92.1752C93.5752 61.5849 94.66 63.2656 95.4296 65.0421C96.2085 66.8186 96.5979 68.621 96.5979 70.4491C96.5979 71.9898 96.2919 73.641 95.68 75.4028C94.9846 77.3783 93.8395 79.3281 92.2447 81.252H89.5466Z" fill="white"/>
<path d="M89.5466 81.252C90.3161 79.9399 90.8585 78.9337 91.1738 78.2334C91.489 77.5331 91.7811 76.7259 92.05 75.8119C92.3189 74.8978 92.5182 74.0317 92.648 73.2134C92.7778 72.3878 92.8427 71.5438 92.8427 70.6813C92.8427 68.9269 92.6063 67.2683 92.1334 65.7055C91.6606 64.1354 90.789 62.2336 89.5187 60H92.1752C93.5752 61.5849 94.66 63.2656 95.4296 65.0421C96.2085 66.8186 96.5979 68.621 96.5979 70.4491C96.5979 71.9898 96.2919 73.641 95.68 75.4028C94.9846 77.3783 93.8395 79.3281 92.2447 81.252H89.5466Z" fill="url(#paint3_radial_878_392)"/>
</g>
<path d="M112.25 64.7571L116.049 61.811L120.174 63.2206L120.197 64.4847C123.61 61.3139 131.403 60.888 134.161 65.4086C134.888 64.6066 137.892 62.2553 141.343 62.1432C150.213 61.8554 149.569 66.4579 149.569 67.389C149.569 67.7988 149.583 87.5923 149.583 87.5923H142.917C142.956 82.8499 142.918 69.54 142.917 69.531C142.514 65.5723 135.034 67.9066 134.858 69.531V87.5923H127.668L127.64 69.531C127.476 65.5109 120.326 67.7702 119.441 69.531V87.5923H112.251V64.7563L112.25 64.7571Z" fill="white"/>
<path d="M161.555 70.5442L154.952 69.46C155.752 66.9304 156.959 61.5449 166.193 61.8213C177.663 62.1651 177.583 66.8892 177.583 68.1574C177.583 69.4257 177.578 85.7423 177.578 87.0106H170.884L170.808 84.7921C170.808 87.1488 153.583 91.4832 153.583 80.0409C153.583 72.5773 161.704 72.306 164.539 72.306C167.894 72.306 168.932 72.2481 170.303 72.2481C170.303 70.8575 170.821 67.7913 167.345 67.0561C166.475 66.8724 162.361 66.5754 161.555 70.5438L161.555 70.5442ZM170.747 76.6284C170.747 76.6284 167.372 76.6271 165.321 76.6271C162.721 76.6271 160.561 77.8821 160.561 79.6426C160.561 84.4509 170.758 82.1555 170.758 79.0413C170.758 78.2383 170.747 78.5353 170.747 76.6284Z" fill="white"/>
<path d="M181.583 87.5923V82.9424H186.243V67.0918L181.595 67.0869V61.811H193.583V87.5923H181.583Z" fill="white"/>
<path d="M188.25 59.4673C191.196 59.4673 193.584 57.3686 193.584 54.7798C193.584 52.191 191.196 50.0923 188.25 50.0923C185.305 50.0923 182.917 52.191 182.917 54.7798C182.917 57.3686 185.305 59.4673 188.25 59.4673Z" fill="white"/>
<path d="M198.917 64.7571L202.787 61.811L206.988 63.2205L207.012 64.4847C209.194 62.7469 213.673 61.5765 217.44 62.3674C222.609 63.4525 222.917 67.2414 222.917 67.2414V87.5923H215.108L215.078 69.7258C215.127 65.3975 206.727 67.7923 206.727 69.8933V87.5923H198.917V64.7567L198.917 64.7571Z" fill="white"/>
<defs>
<clipPath id="paint0_diamond_878_392_clip_path"><path d="M74.7854 39.113C76.9512 37.8626 79.6196 37.8626 81.7854 39.113L103.767 51.8041C105.933 53.0545 107.267 55.3654 107.267 57.8663V83.2484C107.267 85.7493 105.933 88.0602 103.767 89.3106L81.7854 102.002C79.6196 103.252 76.9512 103.252 74.7854 102.002L52.8038 89.3106C50.638 88.0602 49.3038 85.7493 49.3038 83.2484V57.8663C49.3038 55.3654 50.638 53.0545 52.8038 51.8041L74.7854 39.113Z"/></clipPath><filter id="filter0_d_878_392" x="0" y="0" width="156.598" height="141.252" filterUnits="userSpaceOnUse" color-interpolation-filters="sRGB">
<feFlood flood-opacity="0" result="BackgroundImageFix"/>
<feColorMatrix in="SourceAlpha" type="matrix" values="0 0 0 0 0 0 0 0 0 0 0 0 0 0 0 0 0 0 127 0" result="hardAlpha"/>
<feOffset/>
<feGaussianBlur stdDeviation="30"/>
<feComposite in2="hardAlpha" operator="out"/>
<feColorMatrix type="matrix" values="0 0 0 0 1 0 0 0 0 1 0 0 0 0 1 0 0 0 1 0"/>
<feBlend mode="normal" in2="BackgroundImageFix" result="effect1_dropShadow_878_392"/>
<feBlend mode="normal" in="SourceGraphic" in2="effect1_dropShadow_878_392" result="shape"/>
</filter>
<linearGradient id="paint0_diamond_878_392" x1="0" y1="0" x2="500" y2="500" gradientUnits="userSpaceOnUse">
<stop stop-color="white" stop-opacity="0"/>
<stop offset="1" stop-color="white"/>
</linearGradient>
<radialGradient id="paint1_radial_878_392" cx="0" cy="0" r="1" gradientUnits="userSpaceOnUse" gradientTransform="translate(70.0335 70.5245) rotate(90) scale(7.96273 10.0335)">
<stop/>
<stop offset="1"/>
</radialGradient>
<radialGradient id="paint2_radial_878_392" cx="0" cy="0" r="1" gradientTransform="matrix(2.57238e-07 -4.75348e-07 3.58054e-07 1.93764e-07 80.7849 71.0574)" gradientUnits="userSpaceOnUse">
<stop offset="1"/>
<stop offset="1"/>
</radialGradient>
<radialGradient id="paint3_radial_878_392" cx="0" cy="0" r="1" gradientTransform="matrix(2.57238e-07 -4.75348e-07 3.58054e-07 1.93764e-07 80.7849 71.0574)" gradientUnits="userSpaceOnUse">
<stop offset="1"/>
<stop offset="1"/>
</radialGradient>
</defs>
</svg>
