<svg width="103" height="104" viewBox="0 0 103 104" fill="none" xmlns="http://www.w3.org/2000/svg">
<g filter="url(#filter0_f_1111_319)">
<path d="M45 67H43C42.2044 67 41.4415 66.6837 40.8789 66.1211C40.3163 65.5585 40 64.7957 40 64C40 63.2043 40.3163 62.4415 40.8789 61.8789C41.4415 61.3163 42.2044 61 43 61H45V67Z" fill="url(#paint0_linear_1111_319)"/>
<path d="M55 67H49V61H55V67Z" fill="url(#paint1_linear_1111_319)"/>
<path d="M61 61C61.7957 61 62.5585 61.3163 63.1211 61.8789C63.6837 62.4415 64 63.2043 64 64C64 64.7957 63.6837 65.5585 63.1211 66.1211C62.5585 66.6837 61.7957 67 61 67H59V61H61Z" fill="url(#paint2_linear_1111_319)"/>
<path fill-rule="evenodd" clip-rule="evenodd" d="M52 27C52.4896 27 52.9585 27.1957 53.3047 27.543C53.6508 27.8902 53.8456 28.3605 53.8457 28.8516V36.2598H68.6152C70.5738 36.2598 72.453 37.0405 73.8379 38.4297C75.2221 39.8186 75.9998 41.7021 76 43.666V69.5918C76 71.5561 75.2224 73.441 73.8379 74.8301C72.453 76.2192 70.5738 77 68.6152 77H35.3848C33.4262 77 31.547 76.2192 30.1621 74.8301C28.7776 73.441 28 71.5561 28 69.5918V43.666C28.0002 41.7021 28.7779 39.8186 30.1621 38.4297C31.547 37.0405 33.4262 36.2598 35.3848 36.2598H50.1543V28.8516C50.1544 28.3605 50.3492 27.8902 50.6953 27.543C51.0415 27.1957 51.5104 27 52 27ZM43 57C41.1435 57 39.3635 57.738 38.0508 59.0508C36.738 60.3635 36 62.1435 36 64C36 65.8565 36.738 67.6365 38.0508 68.9492C39.3635 70.262 41.1435 71 43 71H61C62.8565 71 64.6365 70.262 65.9492 68.9492C67.262 67.6365 68 65.8565 68 64C68 62.1435 67.262 60.3635 65.9492 59.0508C64.6365 57.738 62.8565 57 61 57H43ZM41.5859 47.0586C41.004 46.9428 40.3997 47.0015 39.8516 47.2285C39.3035 47.4556 38.8354 47.8408 38.5059 48.334C38.1764 48.8273 38 49.4068 38 50C38 50.7956 38.3163 51.5585 38.8789 52.1211C39.4415 52.6837 40.2044 53 41 53C41.5932 53 42.1727 52.8236 42.666 52.4941C43.1592 52.1646 43.5444 51.6964 43.7715 51.1484C43.9985 50.6003 44.0572 49.996 43.9414 49.4141C43.8255 48.8324 43.5405 48.2983 43.1211 47.8789C42.7017 47.4595 42.1676 47.1745 41.5859 47.0586ZM63.5859 47.0586C63.004 46.9428 62.3997 47.0015 61.8516 47.2285C61.3036 47.4556 60.8354 47.8408 60.5059 48.334C60.1764 48.8273 60 49.4068 60 50C60 50.7956 60.3163 51.5585 60.8789 52.1211C61.4415 52.6837 62.2043 53 63 53C63.5932 53 64.1727 52.8236 64.666 52.4941C65.1592 52.1646 65.5444 51.6965 65.7715 51.1484C65.9985 50.6003 66.0572 49.996 65.9414 49.4141C65.8255 48.8324 65.5405 48.2983 65.1211 47.8789C64.7017 47.4595 64.1676 47.1745 63.5859 47.0586Z" fill="url(#paint3_linear_1111_319)"/>
</g>
<g filter="url(#filter1_f_1111_319)">
<path d="M44.3542 67H42.3125C41.5003 67 40.7215 66.6837 40.1472 66.1211C39.5729 65.5585 39.25 64.7957 39.25 64C39.25 63.2043 39.5729 62.4415 40.1472 61.8789C40.7215 61.3163 41.5003 61 42.3125 61H44.3542V67Z" fill="white"/>
<path d="M44.3542 67H42.3125C41.5003 67 40.7215 66.6837 40.1472 66.1211C39.5729 65.5585 39.25 64.7957 39.25 64C39.25 63.2043 39.5729 62.4415 40.1472 61.8789C40.7215 61.3163 41.5003 61 42.3125 61H44.3542V67Z" fill="url(#paint4_linear_1111_319)"/>
<path d="M54.5625 67H48.4375V61H54.5625V67Z" fill="white"/>
<path d="M54.5625 67H48.4375V61H54.5625V67Z" fill="url(#paint5_linear_1111_319)"/>
<path d="M60.6875 61C61.4997 61 62.2785 61.3163 62.8528 61.8789C63.4271 62.4415 63.75 63.2043 63.75 64C63.75 64.7957 63.4271 65.5585 62.8528 66.1211C62.2785 66.6837 61.4997 67 60.6875 67H58.6458V61H60.6875Z" fill="white"/>
<path d="M60.6875 61C61.4997 61 62.2785 61.3163 62.8528 61.8789C63.4271 62.4415 63.75 63.2043 63.75 64C63.75 64.7957 63.4271 65.5585 62.8528 66.1211C62.2785 66.6837 61.4997 67 60.6875 67H58.6458V61H60.6875Z" fill="url(#paint6_linear_1111_319)"/>
<path fill-rule="evenodd" clip-rule="evenodd" d="M51.5 27C51.9998 27 52.4784 27.1957 52.8319 27.543C53.1852 27.8902 53.3841 28.3605 53.3842 28.8516V36.2598H68.4614C70.4607 36.2598 72.3791 37.0405 73.7928 38.4297C75.2059 39.8186 75.9998 41.7021 76 43.666V69.5918C76 71.5561 75.2062 73.441 73.7928 74.8301C72.3791 76.2192 70.4607 77 68.4614 77H34.5386C32.5393 77 30.6209 76.2192 29.2072 74.8301C27.7938 73.441 27 71.5561 27 69.5918V43.666C27.0002 41.7021 27.7941 39.8186 29.2072 38.4297C30.6209 37.0405 32.5393 36.2598 34.5386 36.2598H49.6158V28.8516C49.6159 28.3605 49.8148 27.8902 50.1681 27.543C50.5216 27.1957 51.0002 27 51.5 27ZM42.3125 57C40.4173 57 38.6003 57.738 37.2602 59.0508C35.9201 60.3635 35.1667 62.1435 35.1667 64C35.1667 65.8565 35.9201 67.6365 37.2602 68.9492C38.6003 70.262 40.4173 71 42.3125 71H60.6875C62.5827 71 64.3997 70.262 65.7398 68.9492C67.0799 67.6365 67.8333 65.8565 67.8333 64C67.8333 62.1435 67.0799 60.3635 65.7398 59.0508C64.3997 57.738 62.5827 57 60.6875 57H42.3125ZM40.869 47.0586C40.2749 46.9428 39.6581 47.0015 39.0985 47.2285C38.539 47.4556 38.0612 47.8408 37.7247 48.334C37.3884 48.8273 37.2083 49.4068 37.2083 50C37.2083 50.7956 37.5312 51.5585 38.1056 52.1211C38.6799 52.6837 39.4586 53 40.2708 53C40.8764 53 41.468 52.8236 41.9716 52.4941C42.4751 52.1646 42.8682 51.6964 43.1001 51.1484C43.3319 50.6003 43.3917 49.996 43.2735 49.4141C43.1552 48.8324 42.8642 48.2983 42.4361 47.8789C42.008 47.4595 41.4627 47.1745 40.869 47.0586ZM63.3273 47.0586C62.7332 46.9428 62.1164 47.0015 61.5568 47.2285C60.9974 47.4556 60.5195 47.8408 60.1831 48.334C59.8467 48.8273 59.6667 49.4068 59.6667 50C59.6667 50.7956 59.9896 51.5585 60.5639 52.1211C61.1382 52.6837 61.9169 53 62.7292 53C63.3347 53 63.9263 52.8236 64.4299 52.4941C64.9334 52.1646 65.3266 51.6965 65.5584 51.1484C65.7902 50.6003 65.85 49.996 65.7319 49.4141C65.6136 48.8324 65.3225 48.2983 64.8945 47.8789C64.4664 47.4595 63.9211 47.1745 63.3273 47.0586Z" fill="white"/>
<path fill-rule="evenodd" clip-rule="evenodd" d="M51.5 27C51.9998 27 52.4784 27.1957 52.8319 27.543C53.1852 27.8902 53.3841 28.3605 53.3842 28.8516V36.2598H68.4614C70.4607 36.2598 72.3791 37.0405 73.7928 38.4297C75.2059 39.8186 75.9998 41.7021 76 43.666V69.5918C76 71.5561 75.2062 73.441 73.7928 74.8301C72.3791 76.2192 70.4607 77 68.4614 77H34.5386C32.5393 77 30.6209 76.2192 29.2072 74.8301C27.7938 73.441 27 71.5561 27 69.5918V43.666C27.0002 41.7021 27.7941 39.8186 29.2072 38.4297C30.6209 37.0405 32.5393 36.2598 34.5386 36.2598H49.6158V28.8516C49.6159 28.3605 49.8148 27.8902 50.1681 27.543C50.5216 27.1957 51.0002 27 51.5 27ZM42.3125 57C40.4173 57 38.6003 57.738 37.2602 59.0508C35.9201 60.3635 35.1667 62.1435 35.1667 64C35.1667 65.8565 35.9201 67.6365 37.2602 68.9492C38.6003 70.262 40.4173 71 42.3125 71H60.6875C62.5827 71 64.3997 70.262 65.7398 68.9492C67.0799 67.6365 67.8333 65.8565 67.8333 64C67.8333 62.1435 67.0799 60.3635 65.7398 59.0508C64.3997 57.738 62.5827 57 60.6875 57H42.3125ZM40.869 47.0586C40.2749 46.9428 39.6581 47.0015 39.0985 47.2285C38.539 47.4556 38.0612 47.8408 37.7247 48.334C37.3884 48.8273 37.2083 49.4068 37.2083 50C37.2083 50.7956 37.5312 51.5585 38.1056 52.1211C38.6799 52.6837 39.4586 53 40.2708 53C40.8764 53 41.468 52.8236 41.9716 52.4941C42.4751 52.1646 42.8682 51.6964 43.1001 51.1484C43.3319 50.6003 43.3917 49.996 43.2735 49.4141C43.1552 48.8324 42.8642 48.2983 42.4361 47.8789C42.008 47.4595 41.4627 47.1745 40.869 47.0586ZM63.3273 47.0586C62.7332 46.9428 62.1164 47.0015 61.5568 47.2285C60.9974 47.4556 60.5195 47.8408 60.1831 48.334C59.8467 48.8273 59.6667 49.4068 59.6667 50C59.6667 50.7956 59.9896 51.5585 60.5639 52.1211C61.1382 52.6837 61.9169 53 62.7292 53C63.3347 53 63.9263 52.8236 64.4299 52.4941C64.9334 52.1646 65.3266 51.6965 65.5584 51.1484C65.7902 50.6003 65.85 49.996 65.7319 49.4141C65.6136 48.8324 65.3225 48.2983 64.8945 47.8789C64.4664 47.4595 63.9211 47.1745 63.3273 47.0586Z" fill="url(#paint7_linear_1111_319)"/>
</g>
<path d="M46.4583 64H44.875C44.2451 64 43.6412 63.747 43.1958 63.2969C42.7504 62.8468 42.5 62.2365 42.5 61.6C42.5 60.9635 42.7504 60.3532 43.1958 59.9031C43.6412 59.453 44.2451 59.2 44.875 59.2H46.4583V64Z" fill="white"/>
<path d="M54.375 64H49.625V59.2H54.375V64Z" fill="white"/>
<path d="M59.125 59.2C59.7549 59.2 60.3588 59.453 60.8042 59.9031C61.2496 60.3532 61.5 60.9635 61.5 61.6C61.5 62.2365 61.2496 62.8468 60.8042 63.2969C60.3588 63.747 59.7549 64 59.125 64H57.5417V59.2H59.125Z" fill="white"/>
<path fill-rule="evenodd" clip-rule="evenodd" d="M52 32C52.3876 32 52.7588 32.1566 53.0329 32.4344C53.3069 32.7122 53.4611 33.0884 53.4612 33.4813V39.4078H65.1537C66.7042 39.4078 68.192 40.0324 69.2883 41.1438C70.3842 42.2549 70.9999 43.7617 71 45.3328V66.0734C71 67.6449 70.3844 69.1528 69.2883 70.2641C68.192 71.3754 66.7042 72 65.1537 72H38.8463C37.2958 72 35.808 71.3754 34.7117 70.2641C33.6156 69.1528 33 67.6449 33 66.0734V45.3328C33.0001 43.7617 33.6158 42.2549 34.7117 41.1438C35.808 40.0324 37.2958 39.4078 38.8463 39.4078H50.5388V33.4813C50.5389 33.0884 50.6931 32.7122 50.9671 32.4344C51.2412 32.1566 51.6124 32 52 32ZM44.875 56C43.4053 56 41.9961 56.5904 40.9569 57.6406C39.9176 58.6908 39.3333 60.1148 39.3333 61.6C39.3333 63.0852 39.9176 64.5092 40.9569 65.5594C41.9961 66.6096 43.4053 67.2 44.875 67.2H59.125C60.5947 67.2 62.0039 66.6096 63.0431 65.5594C64.0824 64.5092 64.6667 63.0852 64.6667 61.6C64.6667 60.1148 64.0824 58.6908 63.0431 57.6406C62.0039 56.5904 60.5947 56 59.125 56H44.875ZM43.7555 48.0469C43.2948 47.9543 42.8165 48.0012 42.3825 48.1828C41.9486 48.3645 41.578 48.6726 41.3171 49.0672C41.0563 49.4618 40.9167 49.9254 40.9167 50.4C40.9167 51.0365 41.1671 51.6468 41.6125 52.0969C42.0579 52.547 42.6618 52.8 43.2917 52.8C43.7613 52.8 44.2201 52.6589 44.6106 52.3953C45.0011 52.1317 45.306 51.7572 45.4858 51.3188C45.6655 50.8802 45.7119 50.3968 45.6203 49.9312C45.5286 49.466 45.3029 49.0386 44.9709 48.7031C44.6389 48.3676 44.216 48.1396 43.7555 48.0469ZM61.1722 48.0469C60.7115 47.9543 60.2331 48.0012 59.7992 48.1828C59.3653 48.3645 58.9947 48.6726 58.7338 49.0672C58.473 49.4618 58.3333 49.9254 58.3333 50.4C58.3333 51.0365 58.5837 51.6468 59.0291 52.0969C59.4745 52.547 60.0784 52.8 60.7083 52.8C61.178 52.8 61.6368 52.6589 62.0273 52.3953C62.4177 52.1317 62.7227 51.7572 62.9024 51.3188C63.0822 50.8802 63.1286 50.3968 63.0369 49.9312C62.9452 49.466 62.7195 49.0386 62.3875 48.7031C62.0555 48.3676 61.6327 48.1396 61.1722 48.0469Z" fill="white"/>
<defs>
<filter id="filter0_f_1111_319" x="14" y="13" width="76" height="78" filterUnits="userSpaceOnUse" color-interpolation-filters="sRGB">
<feFlood flood-opacity="0" result="BackgroundImageFix"/>
<feBlend mode="normal" in="SourceGraphic" in2="BackgroundImageFix" result="shape"/>
<feGaussianBlur stdDeviation="7" result="effect1_foregroundBlur_1111_319"/>
</filter>
<filter id="filter1_f_1111_319" x="0" y="0" width="103" height="104" filterUnits="userSpaceOnUse" color-interpolation-filters="sRGB">
<feFlood flood-opacity="0" result="BackgroundImageFix"/>
<feBlend mode="normal" in="SourceGraphic" in2="BackgroundImageFix" result="shape"/>
<feGaussianBlur stdDeviation="13.5" result="effect1_foregroundBlur_1111_319"/>
</filter>
<linearGradient id="paint0_linear_1111_319" x1="28" y1="69.3186" x2="74.9245" y2="33.2809" gradientUnits="userSpaceOnUse">
<stop stop-color="#A50080"/>
<stop offset="1" stop-color="#00A29A"/>
</linearGradient>
<linearGradient id="paint1_linear_1111_319" x1="28" y1="69.3186" x2="74.9245" y2="33.2809" gradientUnits="userSpaceOnUse">
<stop stop-color="#A50080"/>
<stop offset="1" stop-color="#00A29A"/>
</linearGradient>
<linearGradient id="paint2_linear_1111_319" x1="28" y1="69.3186" x2="74.9245" y2="33.2809" gradientUnits="userSpaceOnUse">
<stop stop-color="#A50080"/>
<stop offset="1" stop-color="#00A29A"/>
</linearGradient>
<linearGradient id="paint3_linear_1111_319" x1="28" y1="69.3186" x2="74.9245" y2="33.2809" gradientUnits="userSpaceOnUse">
<stop stop-color="#A50080"/>
<stop offset="1" stop-color="#00A29A"/>
</linearGradient>
<linearGradient id="paint4_linear_1111_319" x1="27" y1="69.3186" x2="74.1654" y2="32.3412" gradientUnits="userSpaceOnUse">
<stop stop-color="#A50080"/>
<stop offset="1" stop-color="#00A29A"/>
</linearGradient>
<linearGradient id="paint5_linear_1111_319" x1="27" y1="69.3186" x2="74.1654" y2="32.3412" gradientUnits="userSpaceOnUse">
<stop stop-color="#A50080"/>
<stop offset="1" stop-color="#00A29A"/>
</linearGradient>
<linearGradient id="paint6_linear_1111_319" x1="27" y1="69.3186" x2="74.1654" y2="32.3412" gradientUnits="userSpaceOnUse">
<stop stop-color="#A50080"/>
<stop offset="1" stop-color="#00A29A"/>
</linearGradient>
<linearGradient id="paint7_linear_1111_319" x1="27" y1="69.3186" x2="74.1654" y2="32.3412" gradientUnits="userSpaceOnUse">
<stop stop-color="#A50080"/>
<stop offset="1" stop-color="#00A29A"/>
</linearGradient>
</defs>
</svg>
