<svg width="106" height="118" viewBox="0 0 106 118" fill="none" xmlns="http://www.w3.org/2000/svg">
<path d="M75.5218 47.9934H68.7506V64.6842C68.7506 67.2877 68.6699 67.3381 67.8929 67.8326C67.57 68.0344 67.0654 68.3573 66.2783 69.3866C65.5417 70.3352 64.9665 71.4049 64.5628 72.5553C64.1794 73.6653 63.9775 74.856 63.9775 76.0872V85.5628C63.9775 85.6435 63.9775 85.7141 63.9876 85.7949V104.302C63.9876 104.595 64.0482 104.867 64.1491 105.119L64.1592 105.14C64.2803 105.412 64.4518 105.664 64.6738 105.876C64.8958 106.088 65.1582 106.26 65.4408 106.371C65.7132 106.482 66.026 106.542 66.349 106.542C66.6719 106.542 66.9746 106.482 67.2572 106.371C67.5498 106.26 67.8122 106.088 68.0241 105.876C68.2461 105.664 68.4176 105.422 68.5387 105.15C68.6497 104.887 68.7103 104.605 68.7103 104.302V94.4127V94.3622C68.7103 94.0797 68.9424 93.8476 69.2249 93.8476H71.6165C71.8991 93.8476 72.1312 94.0797 72.1312 94.3622V109.882C72.1312 110.185 72.1917 110.468 72.3027 110.73C72.4137 110.992 72.5853 111.235 72.7871 111.436L72.8174 111.457C73.0293 111.658 73.2816 111.83 73.5641 111.941L73.5843 111.951C73.8568 112.062 74.1696 112.123 74.4925 112.123C74.8154 112.123 75.1182 112.062 75.4007 111.951C75.6934 111.84 75.9456 111.669 76.1676 111.457C76.3896 111.245 76.5612 111.003 76.6823 110.73C76.7933 110.468 76.8538 110.185 76.8538 109.882V94.3622C76.8538 94.0797 77.0859 93.8476 77.3685 93.8476H79.9014C80.1839 93.8476 80.416 94.0797 80.416 94.3622V115.13C80.416 115.433 80.4766 115.715 80.5876 115.977C80.7087 116.25 80.8802 116.502 81.1022 116.704C81.3242 116.916 81.5866 117.088 81.8691 117.199C82.1416 117.31 82.4544 117.37 82.7773 117.37C83.0902 117.37 83.3929 117.31 83.6553 117.209L83.6755 117.199C83.9681 117.088 84.2305 116.916 84.4424 116.704C84.6644 116.492 84.8359 116.25 84.957 115.977C85.068 115.715 85.1286 115.433 85.1286 115.13V94.3622C85.1286 94.0797 85.3607 93.8476 85.6432 93.8476H88.1156C88.3981 93.8476 88.6302 94.0797 88.6302 94.3622V109.832C88.6302 110.135 88.6908 110.417 88.8018 110.68C88.9229 110.952 89.0944 111.204 89.3164 111.416C89.5384 111.628 89.7907 111.8 90.0833 111.911C90.3558 112.022 90.6686 112.082 90.9915 112.082C91.3145 112.082 91.6172 112.022 91.8997 111.911C92.1924 111.8 92.4447 111.628 92.6667 111.416C92.8887 111.204 93.0602 110.962 93.1813 110.68C93.2923 110.417 93.3529 110.135 93.3529 109.832C93.3529 106.078 93.373 101.87 93.3831 97.6721C93.4033 93.9687 93.4134 90.2753 93.4134 85.5527L93.696 80.9915C93.7061 80.8098 93.8171 80.6383 93.9886 80.5575L94.8968 80.1337C94.9775 80.0934 95.0583 80.0631 95.1592 80.0631C95.3206 80.0631 95.4821 80.0833 95.6436 80.1337C95.805 80.1842 95.9564 80.2447 96.0876 80.3355C96.3903 80.5071 96.7738 80.7795 97.1774 81.1025C97.6012 81.4456 98.0352 81.8189 98.459 82.1923C99.3571 82.9996 100.296 83.8977 100.649 84.2408C101.315 84.8766 101.971 85.2802 102.576 85.5022C103.222 85.7343 103.817 85.7444 104.312 85.593C104.483 85.5426 104.655 85.4618 104.816 85.3609C104.978 85.26 105.119 85.1389 105.25 85.0077C105.382 84.8766 105.493 84.7151 105.583 84.5536C105.674 84.3821 105.745 84.2005 105.795 84.0087C105.947 83.4133 105.886 82.717 105.543 81.9703C105.23 81.2841 104.695 80.5777 103.878 79.8713L103.838 79.8411L103.747 79.7603L103.686 79.6998C103.353 79.3769 102.889 78.9127 102.314 78.3375C99.6094 75.6331 94.5436 70.5774 90.6484 67.7216C90.6081 67.6913 90.5677 67.6611 90.5273 67.6207C90.265 67.3079 90.0228 66.9749 89.8109 66.6217C89.599 66.2685 89.4274 65.8951 89.2861 65.5116C89.1751 65.1786 89.0843 64.8456 89.0338 64.4924C88.9834 64.1594 88.9632 63.8062 88.9733 63.4329V47.9732H76.7529H76.7428C76.6621 47.9732 76.5814 47.9631 76.5006 47.953C76.4603 47.943 76.4199 47.943 76.3896 47.9329C76.2686 47.943 76.1475 47.953 76.0163 47.9631H76.0062C75.8447 47.9833 75.6833 47.9934 75.5218 47.9934Z" fill="white"/>
<path d="M45.5921 31.8174V39.7995H56.0264C58.4886 39.7995 58.529 39.8802 59.0033 40.6673C59.195 40.9902 59.4876 41.4847 60.4463 42.2819C61.3343 43.0185 62.3232 43.5937 63.3929 43.9873C64.4222 44.3707 65.5322 44.5726 66.6725 44.5726H75.5326C75.6032 44.5726 75.6738 44.5726 75.7546 44.5625H93.7168C93.9893 44.5625 94.2415 44.5019 94.4837 44.3909C94.736 44.2698 94.958 44.0983 95.1598 43.8864C95.3516 43.6644 95.513 43.402 95.624 43.1194C95.7249 42.8369 95.7855 42.5342 95.7855 42.2011C95.7855 41.8782 95.7249 41.5654 95.624 41.2829C95.513 40.9902 95.3516 40.7278 95.1598 40.5058C94.9681 40.2939 94.7461 40.1224 94.4938 40.0013C94.2617 39.8903 93.9994 39.8297 93.7269 39.8297H83.8174H83.7669C83.4844 39.8297 83.2523 39.5976 83.2523 39.3151V36.9235C83.2523 36.6409 83.4844 36.4088 83.7669 36.4088H98.9541C99.2266 36.4088 99.4788 36.3483 99.721 36.2373C99.9632 36.1263 100.185 35.9648 100.367 35.763L100.387 35.7327C100.579 35.5107 100.74 35.2484 100.851 34.9658C100.952 34.6832 101.013 34.3805 101.013 34.0475C101.013 33.7246 100.952 33.4118 100.851 33.1292C100.74 32.8366 100.579 32.5742 100.387 32.3522C100.195 32.1403 99.9733 31.9687 99.7109 31.8476C99.4788 31.7366 99.2165 31.6761 98.944 31.6761H83.7568C83.4743 31.6761 83.2422 31.444 83.2422 31.1614V28.6286C83.2422 28.346 83.4743 28.1139 83.7568 28.1139H103.848C104.121 28.1139 104.373 28.0534 104.615 27.9424C104.868 27.8213 105.1 27.6497 105.291 27.4378C105.483 27.2158 105.645 26.9534 105.756 26.6709C105.856 26.3883 105.917 26.0856 105.917 25.7526C105.917 25.4297 105.856 25.1168 105.756 24.8343C105.655 24.5517 105.503 24.2995 105.312 24.0875L105.291 24.0674C105.1 23.8554 104.868 23.6839 104.625 23.5628C104.393 23.4518 104.131 23.3913 103.858 23.3913H83.777C83.4945 23.3913 83.2624 23.1592 83.2624 22.8766V20.4043C83.2624 20.1217 83.4945 19.8896 83.777 19.8896H98.9137C99.1862 19.8896 99.4385 19.8291 99.6807 19.7181C99.9329 19.597 100.165 19.4254 100.357 19.2135C100.549 18.9915 100.71 18.7291 100.821 18.4466C100.922 18.164 100.982 17.8613 100.982 17.5283C100.982 17.2054 100.922 16.8926 100.821 16.61C100.71 16.3174 100.559 16.055 100.357 15.833C100.165 15.6211 99.9329 15.4495 99.6807 15.3284C99.4486 15.2174 99.1862 15.1569 98.9137 15.1569C95.4222 15.1569 91.3151 15.1367 87.2181 15.1266C83.6055 15.1165 79.9928 15.0963 75.5628 15.0963L71.2741 14.834C71.0924 14.8239 70.9209 14.7129 70.8402 14.5312L70.4365 13.623C70.3962 13.5524 70.376 13.4717 70.376 13.3808C70.376 13.2194 70.3962 13.0579 70.4365 12.9066C70.4769 12.7653 70.5374 12.624 70.6182 12.4827C70.7796 12.1699 71.042 11.7864 71.3447 11.3727C71.6374 10.9892 71.9906 10.5452 72.374 10.0911C73.1107 9.2132 73.9079 8.32518 74.251 7.94171L74.2913 7.89126C74.8867 7.22524 75.2702 6.56932 75.4619 5.96385C75.6738 5.30792 75.6839 4.71255 75.5426 4.20799C75.4922 4.02635 75.4216 3.8548 75.3307 3.70343C75.2399 3.54197 75.1289 3.4007 74.9977 3.26951C74.8766 3.13833 74.7354 3.03742 74.5739 2.9466C74.4225 2.84568 74.251 2.77505 74.0794 2.72459C73.5446 2.58332 72.8988 2.64386 72.2227 2.96678C71.597 3.26951 70.931 3.80434 70.2852 4.61164L70.2549 4.66209L70.1742 4.75291L70.0732 4.84373C69.7301 5.2171 69.3164 5.66111 68.8118 6.20604C66.2891 8.91046 61.5664 13.9762 58.9023 17.8714C58.8721 17.9118 58.8418 17.9521 58.8014 17.9925C58.5088 18.2549 58.196 18.4971 57.863 18.7191C57.53 18.931 57.1869 19.1126 56.8135 19.2438C56.5007 19.3548 56.1878 19.4456 55.8447 19.4961C55.5218 19.5465 55.1888 19.5667 54.8457 19.5566H45.5618V30.4752V30.4853C45.5618 30.5661 45.5518 30.6468 45.5417 30.7275C45.5316 30.7679 45.5215 30.8183 45.5215 30.8587C45.5316 30.9899 45.5518 31.1312 45.5518 31.2825C45.582 31.4844 45.5921 31.6559 45.5921 31.8174Z" fill="white"/>
<path d="M60.557 85.5528V77.5707H50.1227C47.6605 77.5707 47.6201 77.49 47.1458 76.7029C46.9541 76.38 46.6615 75.8855 45.7028 75.0883C44.8148 74.3516 43.8258 73.7764 42.7562 73.3829C41.7269 72.9994 40.6169 72.7976 39.4766 72.7976H30.6266C30.556 72.7976 30.4854 72.7976 30.4046 72.8077H12.18C11.9076 72.8077 11.6553 72.8682 11.4131 72.9792C11.1608 73.1003 10.9388 73.2719 10.7471 73.4838C10.5553 73.7058 10.3939 73.9682 10.2829 74.2507C10.182 74.5333 10.1214 74.836 10.1214 75.169C10.1214 75.4919 10.182 75.8048 10.2829 76.0873C10.3939 76.38 10.5553 76.6423 10.7471 76.8643C10.9388 77.0763 11.1608 77.2478 11.4131 77.3689C11.6452 77.4799 11.9076 77.5404 12.18 77.5404H22.3418H22.3923C22.6748 77.5404 22.9069 77.7725 22.9069 78.0551V80.4467C22.9069 80.7292 22.6748 80.9613 22.3923 80.9613H6.9528C6.68034 80.9613 6.42806 81.0219 6.18587 81.1329C5.93359 81.254 5.7015 81.4255 5.50977 81.6374C5.31803 81.8595 5.15658 82.1218 5.04557 82.4044C4.94466 82.6869 4.88411 82.9897 4.88411 83.3227C4.88411 83.6456 4.94466 83.9584 5.04557 84.241C5.15658 84.5336 5.31803 84.796 5.50977 85.018C5.7015 85.2299 5.9235 85.4015 6.18587 85.5225C6.41797 85.6335 6.68034 85.6941 6.9528 85.6941H22.3822C22.6647 85.6941 22.8968 85.9262 22.8968 86.2087V88.7416C22.8968 89.0242 22.6647 89.2563 22.3822 89.2563H2.05859C1.78613 89.2563 1.53385 89.3168 1.29167 89.4278C1.03939 89.5489 0.807292 89.7205 0.625651 89.9324C0.433919 90.1544 0.272461 90.4167 0.161458 90.7094C0.0605467 90.9919 0 91.2947 0 91.6277C0 91.9607 0.0605467 92.2634 0.161458 92.546C0.26237 92.8285 0.413737 93.0808 0.605469 93.2927L0.625651 93.3129C0.817383 93.5248 1.04948 93.6964 1.30176 93.8175C1.53385 93.9285 1.79622 93.989 2.06868 93.989H22.3923C22.6748 93.989 22.9069 94.2211 22.9069 94.5037V96.976C22.9069 97.2585 22.6748 97.4906 22.3923 97.4906H7.00326C6.73079 97.4906 6.47852 97.5512 6.23633 97.6622C5.99414 97.7732 5.77214 97.9347 5.59049 98.1365L5.57031 98.1668C5.37858 98.3888 5.21712 98.6511 5.10612 98.9337C5.00521 99.2162 4.94466 99.519 4.94466 99.852C4.94466 100.175 5.00521 100.488 5.10612 100.77C5.21712 101.063 5.36849 101.325 5.57031 101.547C5.75195 101.759 5.97396 101.921 6.21615 102.042L6.23633 102.052C6.46842 102.163 6.73079 102.223 7.00326 102.223C10.4948 102.223 14.6624 102.244 18.8301 102.254C22.5033 102.274 26.1764 102.284 30.6165 102.284L34.875 102.566C35.0566 102.577 35.2282 102.688 35.3089 102.869L35.7126 103.777C35.7529 103.848 35.7731 103.929 35.7731 104.02C35.7731 104.181 35.7529 104.343 35.7126 104.494C35.6722 104.635 35.6117 104.776 35.5309 104.918C35.3695 105.231 35.1071 105.614 34.8044 106.028C34.5117 106.411 34.1585 106.855 33.7751 107.309C33.0283 108.197 32.2311 109.095 31.8981 109.469L31.8678 109.509C31.2725 110.175 30.889 110.831 30.6973 111.437C30.4854 112.093 30.4753 112.688 30.6165 113.192C30.667 113.374 30.7376 113.546 30.8285 113.697C30.9193 113.858 31.0303 114 31.1615 114.131C31.2826 114.262 31.4238 114.363 31.5853 114.454C31.7367 114.545 31.9082 114.615 32.0798 114.656C32.6146 114.797 33.2604 114.736 33.9365 114.413C34.5622 114.111 35.2282 113.576 35.874 112.769L35.9043 112.718L35.985 112.627L36.0557 112.547C36.3988 112.173 36.8125 111.729 37.3171 111.184C39.8398 108.48 44.5625 103.414 47.2266 99.519C47.2568 99.4786 47.2871 99.4382 47.3275 99.3979C47.6201 99.1355 47.9329 98.8832 48.2659 98.6713C48.599 98.4594 48.9421 98.2778 49.3154 98.1466C49.6283 98.0356 49.9411 97.9447 50.2842 97.8943C50.6071 97.8438 50.9401 97.8237 51.2832 97.8337H60.5671V86.9151V86.905C60.5671 86.8243 60.5771 86.7436 60.5872 86.6628C60.5973 86.6225 60.6074 86.572 60.6074 86.5317C60.5973 86.4005 60.5771 86.2592 60.5771 86.1078C60.557 85.8858 60.557 85.7143 60.557 85.5528Z" fill="white"/>
<path d="M17.1546 53.9574V69.3766H29.375H29.3851C29.4658 69.3766 29.5466 69.3867 29.6273 69.3968C29.6676 69.4069 29.708 69.4069 29.7383 69.417C29.8594 69.4069 29.9906 69.3968 30.1217 69.3867C30.2933 69.3766 30.4649 69.3665 30.6162 69.3665H37.3874V52.696C37.3874 50.0925 37.4681 50.042 38.2451 49.5475C38.568 49.3457 39.0726 49.0228 39.8597 47.9935C40.5964 47.0449 41.1716 45.9753 41.5752 44.8249C41.9587 43.7148 42.1605 42.5241 42.1605 41.293V31.8174C42.1605 31.7367 42.1605 31.666 42.1504 31.5853V13.068C42.1504 12.7754 42.0898 12.4928 41.9889 12.2406L41.9788 12.2204C41.8577 11.9479 41.6862 11.6956 41.4642 11.4837C41.2523 11.2819 41 11.1104 40.7175 10.9993L40.6973 10.9893C40.4248 10.8783 40.112 10.8177 39.7891 10.8177C39.4662 10.8177 39.1634 10.8783 38.8809 10.9893C38.5882 11.1003 38.3258 11.2718 38.1139 11.4837C37.8919 11.6956 37.7204 11.9378 37.5993 12.2103C37.4883 12.4727 37.4277 12.7552 37.4277 13.0579V22.9473V22.9977C37.4277 23.2803 37.1956 23.5124 36.9131 23.5124H34.5215C34.2389 23.5124 34.0068 23.2803 34.0068 22.9977V7.47754C34.0068 7.1748 33.9463 6.89225 33.8353 6.62988C33.7142 6.35742 33.5426 6.10514 33.3206 5.90332C33.0986 5.69141 32.8464 5.51986 32.5537 5.40885C32.2813 5.29785 31.9684 5.2373 31.6455 5.2373C31.3226 5.2373 31.0199 5.29785 30.7373 5.40885C30.4447 5.51986 30.1823 5.69141 29.9704 5.90332C29.7484 6.11523 29.5768 6.35742 29.4557 6.62988C29.3447 6.89225 29.2842 7.1748 29.2842 7.47754V23.0078C29.2842 23.2904 29.0521 23.5225 28.7695 23.5225H26.2367C25.9541 23.5225 25.722 23.2904 25.722 23.0078V2.24023C25.722 1.94759 25.6615 1.66504 25.5606 1.41276L25.5505 1.39258C25.4294 1.12012 25.2578 0.867839 25.0358 0.666016C24.8138 0.454102 24.5514 0.282552 24.2689 0.17155C23.9964 0.060547 23.6836 0 23.3607 0C23.0479 0 22.7451 0.060547 22.4828 0.161458H22.4626C22.1699 0.272461 21.9076 0.444011 21.6956 0.655925C21.4736 0.867839 21.3021 1.11003 21.181 1.38249C21.07 1.64486 21.0094 1.92741 21.0094 2.23014V23.0078C21.0094 23.2904 20.7773 23.5225 20.4948 23.5225H18.0225C17.7399 23.5225 17.5078 23.2904 17.5078 23.0078V7.528C17.5078 7.22526 17.4473 6.94271 17.3363 6.68034C17.2152 6.40788 17.0335 6.1556 16.8216 5.95378C16.5996 5.74186 16.3473 5.57031 16.0547 5.45931C15.7822 5.34831 15.4694 5.28776 15.1465 5.28776C14.8236 5.28776 14.5208 5.34831 14.2383 5.45931C13.9557 5.57031 13.7035 5.73177 13.4915 5.93359L13.4714 5.95378C13.2494 6.16569 13.0778 6.40788 12.9567 6.69043C12.8457 6.9528 12.7852 7.23535 12.7852 7.53809C12.7852 11.292 12.765 15.5 12.7549 19.6979C12.7347 23.4014 12.7246 27.0947 12.7246 31.8174L12.4421 36.3786C12.432 36.5602 12.321 36.7318 12.1494 36.8125L11.2412 37.2363C11.1605 37.2767 11.0798 37.307 10.9788 37.307C10.8174 37.307 10.6559 37.2868 10.4945 37.2363C10.333 37.1859 10.1816 37.1253 10.0505 37.0345C9.74773 36.863 9.36426 36.5905 8.96062 36.2676C8.53679 35.9245 8.10287 35.5511 7.67904 35.1777C6.78093 34.3704 5.84245 33.4723 5.48926 33.1292C4.82325 32.4935 4.16732 32.0898 3.56185 31.8678C2.91602 31.6458 2.32064 31.6257 1.82618 31.777C1.65463 31.8275 1.48308 31.9082 1.32162 32.0091C1.16016 32.11 1.01888 32.221 0.887699 32.3623C0.756515 32.4935 0.645512 32.6549 0.554691 32.8164C0.463871 32.998 0.393233 33.1797 0.342777 33.3714C0.19141 33.9668 0.251957 34.6631 0.595056 35.4098C0.907882 36.096 1.44271 36.8024 2.2601 37.5088L2.30046 37.5391L2.39128 37.6198L2.45183 37.6803C2.78483 38.0033 3.24903 38.4674 3.83431 39.0527C6.53874 41.7572 11.6045 46.8128 15.4997 49.6585C15.54 49.6888 15.5804 49.7191 15.6208 49.7594C15.8932 50.0723 16.1253 50.4053 16.3372 50.7585C16.5492 51.1117 16.7207 51.485 16.862 51.8685C16.973 52.2015 17.0638 52.5345 17.1143 52.8877C17.1647 53.2207 17.1849 53.5739 17.1748 53.9473L17.1546 53.9574Z" fill="white"/>
</svg>
