<svg width="109" height="104" viewBox="0 0 109 104" fill="none" xmlns="http://www.w3.org/2000/svg">
<g filter="url(#filter0_f_1111_320)">
<path fill-rule="evenodd" clip-rule="evenodd" d="M72.3571 43.3846C74.9146 43.3846 77.367 44.398 79.1753 46.2012C80.9837 48.0045 82 50.4498 82 53V54.9231C81.9992 57.3691 81.0631 59.7228 79.3831 61.5052C77.7032 63.2874 75.4048 64.3641 72.9566 64.5163C71.6411 68.2268 69.4014 71.5435 66.4477 74.1538H72.3571C72.8686 74.1538 73.3594 74.3562 73.7211 74.7169C74.0828 75.0775 74.2857 75.5669 74.2857 76.0769C74.2857 76.587 74.0828 77.0763 73.7211 77.437C73.3594 77.7976 72.8686 78 72.3571 78H29.9286C29.4171 78 28.9263 77.7976 28.5646 77.437C28.2029 77.0763 28 76.587 28 76.0769C28 75.5669 28.2029 75.0775 28.5646 74.7169C28.9263 74.3562 29.4171 74.1538 29.9286 74.1538H35.8443C33.3839 71.9863 31.4124 69.323 30.0602 66.3398C28.708 63.3563 28.0058 60.1202 28 56.8462V45.3077C28 44.7977 28.2029 44.3083 28.5646 43.9476C28.9263 43.587 29.4171 43.3846 29.9286 43.3846H72.3571ZM74.2857 56.8462C74.2843 58.0537 74.1882 59.2595 73.9971 60.4519C75.1934 60.0994 76.2427 59.37 76.9898 58.3739C77.7371 57.3775 78.142 56.1673 78.1429 54.9231V53C78.1425 51.8073 77.771 50.6432 77.0802 49.6694C76.3895 48.696 75.4131 47.9604 74.2857 47.5629V56.8462Z" fill="url(#paint0_linear_1111_320)"/>
<path d="M43.4286 28C43.9401 28 44.4309 28.2024 44.7925 28.563C45.1542 28.9237 45.3571 29.413 45.3571 29.9231V37.6154C45.3571 38.1254 45.1542 38.6148 44.7925 38.9755C44.4309 39.3361 43.9401 39.5385 43.4286 39.5385C42.9171 39.5385 42.4263 39.3361 42.0646 38.9755C41.7029 38.6148 41.5 38.1254 41.5 37.6154V29.9231C41.5 29.413 41.7029 28.9237 42.0646 28.563C42.4263 28.2024 42.9171 28 43.4286 28Z" fill="url(#paint1_linear_1111_320)"/>
<path d="M51.1429 28C51.6543 28 52.1451 28.2024 52.5068 28.563C52.8685 28.9237 53.0714 29.413 53.0714 29.9231V37.6154C53.0714 38.1254 52.8685 38.6148 52.5068 38.9755C52.1451 39.3361 51.6543 39.5385 51.1429 39.5385C50.6314 39.5385 50.1406 39.3361 49.7789 38.9755C49.4172 38.6148 49.2143 38.1254 49.2143 37.6154V29.9231C49.2143 29.413 49.4172 28.9237 49.7789 28.563C50.1406 28.2024 50.6314 28 51.1429 28Z" fill="url(#paint2_linear_1111_320)"/>
<path d="M58.8571 28C59.3686 28 59.8594 28.2024 60.2211 28.563C60.5828 28.9237 60.7857 29.413 60.7857 29.9231V37.6154C60.7857 38.1254 60.5828 38.6148 60.2211 38.9755C59.8594 39.3361 59.3686 39.5385 58.8571 39.5385C58.3457 39.5385 57.8549 39.3361 57.4932 38.9755C57.1315 38.6148 56.9286 38.1254 56.9286 37.6154V29.9231C56.9286 29.413 57.1315 28.9237 57.4932 28.563C57.8549 28.2024 58.3457 28 58.8571 28Z" fill="url(#paint3_linear_1111_320)"/>
</g>
<g filter="url(#filter1_f_1111_320)">
<path fill-rule="evenodd" clip-rule="evenodd" d="M72.1786 42.3846C74.7834 42.3846 77.2812 43.398 79.123 45.2012C80.9649 47.0045 82 49.4498 82 52V53.9231C81.9992 56.3691 81.0457 58.7228 79.3346 60.5052C77.6236 62.2874 75.2827 63.3641 72.7892 63.5163C71.4493 67.2268 69.1681 70.5435 66.1597 73.1538H72.1786C72.6995 73.1538 73.1994 73.3562 73.5678 73.7169C73.9362 74.0775 74.1429 74.5669 74.1429 75.0769C74.1429 75.587 73.9362 76.0763 73.5678 76.437C73.1994 76.7976 72.6995 77 72.1786 77H28.9643C28.4433 77 27.9434 76.7976 27.5751 76.437C27.2067 76.0763 27 75.587 27 75.0769C27 74.5669 27.2067 74.0775 27.5751 73.7169C27.9434 73.3562 28.4433 73.1538 28.9643 73.1538H34.9896C32.4836 70.9863 30.4756 68.323 29.0984 65.3398C27.7211 62.3563 27.0059 59.1202 27 55.8462V44.3077C27 43.7977 27.2067 43.3083 27.5751 42.9476C27.9434 42.587 28.4433 42.3846 28.9643 42.3846H72.1786ZM74.1429 55.8462C74.1414 57.0537 74.0435 58.2595 73.8489 59.4519C75.0673 59.0994 76.1361 58.37 76.8971 57.3739C77.6581 56.3775 78.0706 55.1673 78.0714 53.9231V52C78.0711 50.8073 77.6927 49.6432 76.9891 48.6694C76.2856 47.696 75.2912 46.9604 74.1429 46.5629V55.8462Z" fill="white"/>
<path fill-rule="evenodd" clip-rule="evenodd" d="M72.1786 42.3846C74.7834 42.3846 77.2812 43.398 79.123 45.2012C80.9649 47.0045 82 49.4498 82 52V53.9231C81.9992 56.3691 81.0457 58.7228 79.3346 60.5052C77.6236 62.2874 75.2827 63.3641 72.7892 63.5163C71.4493 67.2268 69.1681 70.5435 66.1597 73.1538H72.1786C72.6995 73.1538 73.1994 73.3562 73.5678 73.7169C73.9362 74.0775 74.1429 74.5669 74.1429 75.0769C74.1429 75.587 73.9362 76.0763 73.5678 76.437C73.1994 76.7976 72.6995 77 72.1786 77H28.9643C28.4433 77 27.9434 76.7976 27.5751 76.437C27.2067 76.0763 27 75.587 27 75.0769C27 74.5669 27.2067 74.0775 27.5751 73.7169C27.9434 73.3562 28.4433 73.1538 28.9643 73.1538H34.9896C32.4836 70.9863 30.4756 68.323 29.0984 65.3398C27.7211 62.3563 27.0059 59.1202 27 55.8462V44.3077C27 43.7977 27.2067 43.3083 27.5751 42.9476C27.9434 42.587 28.4433 42.3846 28.9643 42.3846H72.1786ZM74.1429 55.8462C74.1414 57.0537 74.0435 58.2595 73.8489 59.4519C75.0673 59.0994 76.1361 58.37 76.8971 57.3739C77.6581 56.3775 78.0706 55.1673 78.0714 53.9231V52C78.0711 50.8073 77.6927 49.6432 76.9891 48.6694C76.2856 47.696 75.2912 46.9604 74.1429 46.5629V55.8462Z" fill="url(#paint4_linear_1111_320)"/>
<path d="M42.7143 27C43.2352 27 43.7351 27.2024 44.1035 27.563C44.4719 27.9237 44.6786 28.413 44.6786 28.9231V36.6154C44.6786 37.1254 44.4719 37.6148 44.1035 37.9755C43.7351 38.3361 43.2352 38.5385 42.7143 38.5385C42.1933 38.5385 41.6934 38.3361 41.3251 37.9755C40.9567 37.6148 40.75 37.1254 40.75 36.6154V28.9231C40.75 28.413 40.9567 27.9237 41.3251 27.563C41.6934 27.2024 42.1933 27 42.7143 27Z" fill="white"/>
<path d="M42.7143 27C43.2352 27 43.7351 27.2024 44.1035 27.563C44.4719 27.9237 44.6786 28.413 44.6786 28.9231V36.6154C44.6786 37.1254 44.4719 37.6148 44.1035 37.9755C43.7351 38.3361 43.2352 38.5385 42.7143 38.5385C42.1933 38.5385 41.6934 38.3361 41.3251 37.9755C40.9567 37.6148 40.75 37.1254 40.75 36.6154V28.9231C40.75 28.413 40.9567 27.9237 41.3251 27.563C41.6934 27.2024 42.1933 27 42.7143 27Z" fill="url(#paint5_linear_1111_320)"/>
<path d="M50.5714 27C51.0924 27 51.5923 27.2024 51.9606 27.563C52.329 27.9237 52.5357 28.413 52.5357 28.9231V36.6154C52.5357 37.1254 52.329 37.6148 51.9606 37.9755C51.5923 38.3361 51.0924 38.5385 50.5714 38.5385C50.0505 38.5385 49.5506 38.3361 49.1822 37.9755C48.8138 37.6148 48.6071 37.1254 48.6071 36.6154V28.9231C48.6071 28.413 48.8138 27.9237 49.1822 27.563C49.5506 27.2024 50.0505 27 50.5714 27Z" fill="white"/>
<path d="M50.5714 27C51.0924 27 51.5923 27.2024 51.9606 27.563C52.329 27.9237 52.5357 28.413 52.5357 28.9231V36.6154C52.5357 37.1254 52.329 37.6148 51.9606 37.9755C51.5923 38.3361 51.0924 38.5385 50.5714 38.5385C50.0505 38.5385 49.5506 38.3361 49.1822 37.9755C48.8138 37.6148 48.6071 37.1254 48.6071 36.6154V28.9231C48.6071 28.413 48.8138 27.9237 49.1822 27.563C49.5506 27.2024 50.0505 27 50.5714 27Z" fill="url(#paint6_linear_1111_320)"/>
<path d="M58.4286 27C58.9495 27 59.4494 27.2024 59.8178 27.563C60.1862 27.9237 60.3929 28.413 60.3929 28.9231V36.6154C60.3929 37.1254 60.1862 37.6148 59.8178 37.9755C59.4494 38.3361 58.9495 38.5385 58.4286 38.5385C57.9076 38.5385 57.4077 38.3361 57.0394 37.9755C56.671 37.6148 56.4643 37.1254 56.4643 36.6154V28.9231C56.4643 28.413 56.671 27.9237 57.0394 27.563C57.4077 27.2024 57.9076 27 58.4286 27Z" fill="white"/>
<path d="M58.4286 27C58.9495 27 59.4494 27.2024 59.8178 27.563C60.1862 27.9237 60.3929 28.413 60.3929 28.9231V36.6154C60.3929 37.1254 60.1862 37.6148 59.8178 37.9755C59.4494 38.3361 58.9495 38.5385 58.4286 38.5385C57.9076 38.5385 57.4077 38.3361 57.0394 37.9755C56.671 37.6148 56.4643 37.1254 56.4643 36.6154V28.9231C56.4643 28.413 56.671 27.9237 57.0394 27.563C57.4077 27.2024 57.9076 27 58.4286 27Z" fill="url(#paint7_linear_1111_320)"/>
</g>
<path fill-rule="evenodd" clip-rule="evenodd" d="M70.25 40.8462C72.5706 40.8462 74.7959 41.7582 76.4369 43.3811C78.0778 45.004 79 47.2049 79 49.5V51.2308C78.9993 53.4322 78.1498 55.5505 76.6254 57.1547C75.101 58.7587 73.0155 59.7277 70.794 59.8647C69.6003 63.2041 67.5679 66.1891 64.8877 68.5385H70.25C70.7141 68.5385 71.1595 68.7206 71.4877 69.0452C71.8159 69.3697 72 69.8102 72 70.2692C72 70.7283 71.8159 71.1687 71.4877 71.4933C71.1595 71.8179 70.7141 72 70.25 72H31.75C31.2859 72 30.8405 71.8179 30.5123 71.4933C30.1841 71.1687 30 70.7283 30 70.2692C30 69.8102 30.1841 69.3697 30.5123 69.0452C30.8405 68.7206 31.2859 68.5385 31.75 68.5385H37.118C34.8854 66.5877 33.0964 64.1907 31.8694 61.5058C30.6424 58.8207 30.0052 55.9081 30 52.9615V42.5769C30 42.1179 30.1841 41.6774 30.5123 41.3529C30.8405 41.0283 31.2859 40.8462 31.75 40.8462H70.25ZM72 52.9615C71.9987 54.0484 71.9115 55.1335 71.7381 56.2067C72.8236 55.8894 73.7758 55.233 74.4537 54.3365C75.1318 53.4397 75.4992 52.3505 75.5 51.2308V49.5C75.4997 48.4265 75.1626 47.3789 74.5358 46.5025C73.909 45.6264 73.023 44.9643 72 44.6066V52.9615Z" fill="white"/>
<path d="M44 27C44.4641 27 44.9095 27.1821 45.2377 27.5067C45.5659 27.8313 45.75 28.2717 45.75 28.7308V35.6538C45.75 36.1129 45.5659 36.5533 45.2377 36.8779C44.9095 37.2025 44.4641 37.3846 44 37.3846C43.5359 37.3846 43.0905 37.2025 42.7623 36.8779C42.4341 36.5533 42.25 36.1129 42.25 35.6538V28.7308C42.25 28.2717 42.4341 27.8313 42.7623 27.5067C43.0905 27.1821 43.5359 27 44 27Z" fill="white"/>
<path d="M51 27C51.4641 27 51.9095 27.1821 52.2377 27.5067C52.5659 27.8313 52.75 28.2717 52.75 28.7308V35.6538C52.75 36.1129 52.5659 36.5533 52.2377 36.8779C51.9095 37.2025 51.4641 37.3846 51 37.3846C50.5359 37.3846 50.0905 37.2025 49.7623 36.8779C49.4341 36.5533 49.25 36.1129 49.25 35.6538V28.7308C49.25 28.2717 49.4341 27.8313 49.7623 27.5067C50.0905 27.1821 50.5359 27 51 27Z" fill="white"/>
<path d="M58 27C58.4641 27 58.9095 27.1821 59.2377 27.5067C59.5659 27.8313 59.75 28.2717 59.75 28.7308V35.6538C59.75 36.1129 59.5659 36.5533 59.2377 36.8779C58.9095 37.2025 58.4641 37.3846 58 37.3846C57.5359 37.3846 57.0905 37.2025 56.7623 36.8779C56.4341 36.5533 56.25 36.1129 56.25 35.6538V28.7308C56.25 28.2717 56.4341 27.8313 56.7623 27.5067C57.0905 27.1821 57.5359 27 58 27Z" fill="white"/>
<defs>
<filter id="filter0_f_1111_320" x="14" y="14" width="82" height="78" filterUnits="userSpaceOnUse" color-interpolation-filters="sRGB">
<feFlood flood-opacity="0" result="BackgroundImageFix"/>
<feBlend mode="normal" in="SourceGraphic" in2="BackgroundImageFix" result="shape"/>
<feGaussianBlur stdDeviation="7" result="effect1_foregroundBlur_1111_320"/>
</filter>
<filter id="filter1_f_1111_320" x="0" y="0" width="109" height="104" filterUnits="userSpaceOnUse" color-interpolation-filters="sRGB">
<feFlood flood-opacity="0" result="BackgroundImageFix"/>
<feBlend mode="normal" in="SourceGraphic" in2="BackgroundImageFix" result="shape"/>
<feGaussianBlur stdDeviation="13.5" result="effect1_foregroundBlur_1111_320"/>
</filter>
<linearGradient id="paint0_linear_1111_320" x1="39.225" y1="28" x2="77.7548" y2="71.8699" gradientUnits="userSpaceOnUse">
<stop stop-color="#A50080"/>
<stop offset="1" stop-color="#00A29A"/>
</linearGradient>
<linearGradient id="paint1_linear_1111_320" x1="39.225" y1="28" x2="77.7548" y2="71.8699" gradientUnits="userSpaceOnUse">
<stop stop-color="#A50080"/>
<stop offset="1" stop-color="#00A29A"/>
</linearGradient>
<linearGradient id="paint2_linear_1111_320" x1="39.225" y1="28" x2="77.7548" y2="71.8699" gradientUnits="userSpaceOnUse">
<stop stop-color="#A50080"/>
<stop offset="1" stop-color="#00A29A"/>
</linearGradient>
<linearGradient id="paint3_linear_1111_320" x1="39.225" y1="28" x2="77.7548" y2="71.8699" gradientUnits="userSpaceOnUse">
<stop stop-color="#A50080"/>
<stop offset="1" stop-color="#00A29A"/>
</linearGradient>
<linearGradient id="paint4_linear_1111_320" x1="38.4328" y1="27" x2="76.8651" y2="71.5692" gradientUnits="userSpaceOnUse">
<stop stop-color="#A50080"/>
<stop offset="1" stop-color="#00A29A"/>
</linearGradient>
<linearGradient id="paint5_linear_1111_320" x1="38.4328" y1="27" x2="76.8651" y2="71.5692" gradientUnits="userSpaceOnUse">
<stop stop-color="#A50080"/>
<stop offset="1" stop-color="#00A29A"/>
</linearGradient>
<linearGradient id="paint6_linear_1111_320" x1="38.4328" y1="27" x2="76.8651" y2="71.5692" gradientUnits="userSpaceOnUse">
<stop stop-color="#A50080"/>
<stop offset="1" stop-color="#00A29A"/>
</linearGradient>
<linearGradient id="paint7_linear_1111_320" x1="38.4328" y1="27" x2="76.8651" y2="71.5692" gradientUnits="userSpaceOnUse">
<stop stop-color="#A50080"/>
<stop offset="1" stop-color="#00A29A"/>
</linearGradient>
</defs>
</svg>
