<svg width="49" height="45" viewBox="0 0 49 45" fill="none" xmlns="http://www.w3.org/2000/svg">
<path fill-rule="evenodd" clip-rule="evenodd" d="M40.25 13.8462C42.5706 13.8462 44.7959 14.7582 46.4369 16.3811C48.0778 18.004 49 20.2049 49 22.5V24.2308C48.9993 26.4322 48.1498 28.5505 46.6254 30.1547C45.101 31.7587 43.0155 32.7277 40.794 32.8647C39.6003 36.2041 37.5679 39.1891 34.8877 41.5385H40.25C40.7141 41.5385 41.1595 41.7206 41.4877 42.0452C41.8159 42.3697 42 42.8102 42 43.2692C42 43.7283 41.8159 44.1687 41.4877 44.4933C41.1595 44.8179 40.7141 45 40.25 45H1.75C1.28587 45 0.840524 44.8179 0.512336 44.4933C0.184147 44.1687 0 43.7283 0 43.2692C0 42.8102 0.184147 42.3697 0.512336 42.0452C0.840524 41.7206 1.28587 41.5385 1.75 41.5385H7.11801C4.88539 39.5876 3.09644 37.1907 1.86945 34.5058C0.642442 31.8207 0.00523 28.9081 0 25.9615V15.5769C0 15.1179 0.184147 14.6774 0.512336 14.3529C0.840524 14.0283 1.28587 13.8462 1.75 13.8462H40.25ZM42 25.9615C41.9987 27.0484 41.9115 28.1335 41.7381 29.2067C42.8236 28.8894 43.7758 28.233 44.4537 27.3365C45.1318 26.4397 45.4992 25.3505 45.5 24.2308V22.5C45.4997 21.4265 45.1626 20.3789 44.5358 19.5025C43.909 18.6264 43.023 17.9643 42 17.6066V25.9615Z" fill="white"/>
<path d="M14 0C14.4641 0 14.9095 0.182123 15.2377 0.506705C15.5659 0.831288 15.75 1.27174 15.75 1.73077V8.65385C15.75 9.11287 15.5659 9.55333 15.2377 9.87791C14.9095 10.2025 14.4641 10.3846 14 10.3846C13.5359 10.3846 13.0905 10.2025 12.7623 9.87791C12.4341 9.55333 12.25 9.11287 12.25 8.65385V1.73077C12.25 1.27174 12.4341 0.831288 12.7623 0.506705C13.0905 0.182123 13.5359 0 14 0Z" fill="white"/>
<path d="M21 0C21.4641 0 21.9095 0.182123 22.2377 0.506705C22.5659 0.831288 22.75 1.27174 22.75 1.73077V8.65385C22.75 9.11287 22.5659 9.55333 22.2377 9.87791C21.9095 10.2025 21.4641 10.3846 21 10.3846C20.5359 10.3846 20.0905 10.2025 19.7623 9.87791C19.4341 9.55333 19.25 9.11287 19.25 8.65385V1.73077C19.25 1.27174 19.4341 0.831288 19.7623 0.506705C20.0905 0.182123 20.5359 0 21 0Z" fill="white"/>
<path d="M28 0C28.4641 0 28.9095 0.182124 29.2377 0.506705C29.5659 0.831288 29.75 1.27174 29.75 1.73077V8.65385C29.75 9.11287 29.5659 9.55333 29.2377 9.87791C28.9095 10.2025 28.4641 10.3846 28 10.3846C27.5359 10.3846 27.0905 10.2025 26.7623 9.87791C26.4341 9.55333 26.25 9.11287 26.25 8.65385V1.73077C26.25 1.27174 26.4341 0.831288 26.7623 0.506705C27.0905 0.182124 27.5359 0 28 0Z" fill="white"/>
</svg>
