<svg width="101" height="125" viewBox="0 0 101 125" fill="none" xmlns="http://www.w3.org/2000/svg">
<g filter="url(#filter0_f_1080_396)">
<path d="M56.5808 21.0039L56.5847 21.001L58.4109 23.5381L61.1438 21.571L61.1466 21.575L61.1506 21.5721L70.014 33.8857L70.01 33.8886L70.0129 33.8925L56.921 43.3162L58.4625 45.4578L66.2766 39.8331L66.28 39.8379L66.2848 39.8345L68.3951 42.7662L68.3903 42.7697L68.3932 42.7736L58.0388 50.2268L61.4094 54.9094L66.6825 51.1138L66.6853 51.1177L66.6893 51.1149L70.9099 56.9784L70.906 56.9813L70.9088 56.9852L67.7813 59.2365L67.7784 59.2325L67.7744 59.2354L65.8079 56.5033L63.8613 57.9045L70.4707 67.0866L70.4667 67.0895L70.4696 67.0934L67.7375 69.06L70.5484 72.965L70.5444 72.9679L70.5473 72.9719L68.0102 74.7981L70.622 78.4265L69.8353 77.3419L67.1093 79.3186L74.2721 89.2695L77.0049 87.3024L77.0078 87.3063L77.0117 87.3035L79.122 90.2353L79.1181 90.2381L79.1209 90.2421L73.2574 94.4627L73.2545 94.4587L73.2506 94.4616L67.7663 86.8425L65.2292 88.6687L65.2263 88.6647L65.2224 88.6675L63.2558 85.9355L61.3092 87.3367L63.2758 90.0687L63.2718 90.0716L63.2747 90.0755L60.5418 92.0427L62.368 94.5797L62.3641 94.5826L62.3669 94.5865L59.8307 96.4122L61.3727 98.5545L63.909 96.7289L63.9119 96.7329L63.9158 96.73L66.0261 99.6618L66.0222 99.6646L66.025 99.6686L60.3572 103.748L60.3544 103.744L60.3504 103.747L52.8967 93.3921L50.3597 95.2183L50.3568 95.2143L50.3528 95.2172L48.5266 92.6801L45.9896 94.5063L45.9867 94.5023L45.9828 94.5052L44.0162 91.7731L41.4791 93.5993L41.4763 93.5954L41.4723 93.5982L39.6587 91.0786L36.9266 93.0451L36.9238 93.0412L36.9198 93.044L35.0811 90.4895L32.544 92.3157L32.5411 92.3118L32.5372 92.3146L21.0003 76.2869L21.0043 76.2841L21.0014 76.2801L23.9332 74.1698L23.9361 74.1738L23.94 74.1709L27.5953 79.249L30.3281 77.2819L30.331 77.2859L30.3349 77.283L32.1611 79.8201L34.6974 77.9944L34.7003 77.9984L34.7042 77.9956L36.6708 80.7276L41.3542 77.3565L39.528 74.8194L39.5319 74.8165L39.5291 74.8126L42.0836 72.9738L40.117 70.2418L40.121 70.2389L40.1182 70.235L44.0058 67.4366L42.1796 64.8995L42.1836 64.8967L42.1807 64.8927L46.0858 62.0818L44.2596 59.5448L44.2635 59.5419L44.2607 59.5379L46.9927 57.5714L34.7559 40.5712L34.7598 40.5684L34.757 40.5644L37.294 38.7382L35.4678 36.2011L35.4718 36.1983L35.469 36.1943L56.5779 20.9999L56.5808 21.0039ZM40.6828 38.0785L40.6857 38.0825L40.6817 38.0853L43.0733 41.4079L43.0772 41.405L43.0801 41.409L46.4026 39.0174L46.3998 39.0134L46.4037 39.0106L44.0122 35.6881L44.0082 35.6909L44.0053 35.6869L40.6828 38.0785Z" fill="url(#paint0_linear_1080_396)"/>
</g>
<g filter="url(#filter1_f_1080_396)">
<path d="M56.5808 21.0039L56.5847 21.001L58.4109 23.5381L61.1438 21.571L61.1466 21.575L61.1506 21.5721L70.014 33.8857L70.01 33.8886L70.0129 33.8925L56.921 43.3162L58.4625 45.4578L66.2766 39.8331L66.28 39.8379L66.2848 39.8345L68.3951 42.7662L68.3903 42.7697L68.3932 42.7736L58.0388 50.2268L61.4094 54.9094L66.6825 51.1138L66.6853 51.1177L66.6893 51.1149L70.9099 56.9784L70.906 56.9813L70.9088 56.9852L67.7813 59.2365L67.7784 59.2325L67.7744 59.2354L65.8079 56.5033L63.8613 57.9045L70.4707 67.0866L70.4667 67.0895L70.4696 67.0934L67.7375 69.06L70.5484 72.965L70.5444 72.9679L70.5473 72.9719L68.0102 74.7981L70.622 78.4265L69.8353 77.3419L67.1093 79.3186L74.2721 89.2695L77.0049 87.3024L77.0078 87.3063L77.0117 87.3035L79.122 90.2353L79.1181 90.2381L79.1209 90.2421L73.2574 94.4627L73.2545 94.4587L73.2506 94.4616L67.7663 86.8425L65.2292 88.6687L65.2263 88.6647L65.2224 88.6675L63.2558 85.9355L61.3092 87.3367L63.2758 90.0687L63.2718 90.0716L63.2747 90.0755L60.5418 92.0427L62.368 94.5797L62.3641 94.5826L62.3669 94.5865L59.8307 96.4122L61.3727 98.5545L63.909 96.7289L63.9119 96.7329L63.9158 96.73L66.0261 99.6618L66.0222 99.6646L66.025 99.6686L60.3572 103.748L60.3544 103.744L60.3504 103.747L52.8967 93.3921L50.3597 95.2183L50.3568 95.2143L50.3528 95.2172L48.5266 92.6801L45.9896 94.5063L45.9867 94.5023L45.9828 94.5052L44.0162 91.7731L41.4791 93.5993L41.4763 93.5954L41.4723 93.5982L39.6587 91.0786L36.9266 93.0451L36.9238 93.0412L36.9198 93.044L35.0811 90.4895L32.544 92.3157L32.5411 92.3118L32.5372 92.3146L21.0003 76.2869L21.0043 76.2841L21.0014 76.2801L23.9332 74.1698L23.9361 74.1738L23.94 74.1709L27.5953 79.249L30.3281 77.2819L30.331 77.2859L30.3349 77.283L32.1611 79.8201L34.6974 77.9944L34.7003 77.9984L34.7042 77.9956L36.6708 80.7276L41.3542 77.3565L39.528 74.8194L39.5319 74.8165L39.5291 74.8126L42.0836 72.9738L40.117 70.2418L40.121 70.2389L40.1182 70.235L44.0058 67.4366L42.1796 64.8995L42.1836 64.8967L42.1807 64.8927L46.0858 62.0818L44.2596 59.5448L44.2635 59.5419L44.2607 59.5379L46.9927 57.5714L34.7559 40.5712L34.7598 40.5684L34.757 40.5644L37.294 38.7382L35.4678 36.2011L35.4718 36.1983L35.469 36.1943L56.5779 20.9999L56.5808 21.0039ZM40.6834 38.0793L40.6862 38.0833L40.6823 38.0861L43.0739 41.4087L43.0778 41.4058L43.0807 41.4098L46.4032 39.0182L46.4003 39.0142L46.4043 39.0114L44.0127 35.6889L44.0088 35.6917L44.0059 35.6877L40.6834 38.0793Z" fill="url(#paint1_linear_1080_396)"/>
</g>
<path d="M55.9774 29.4908L55.9821 29.4874L57.4632 31.5449L59.6793 29.9498L59.6827 29.9545L59.6866 29.9517L66.8791 39.9438L66.8751 39.9467L66.8785 39.9514L56.2555 47.598L57.5055 49.3345L63.8462 44.7704L63.849 44.7744L63.853 44.7716L65.5656 47.1509L65.5617 47.1538L65.5645 47.1577L57.1615 53.2063L59.8954 57.0043L64.1746 53.9242L64.178 53.9289L64.182 53.9261L67.6067 58.6839L67.6028 58.6868L67.6056 58.6908L65.0678 60.5175L65.0649 60.5136L65.061 60.5164L63.4658 58.3004L61.8878 59.4362L67.2506 66.8866L67.2458 66.89L67.2492 66.8947L65.0332 68.4899L67.3135 71.6578L67.3095 71.6607L67.3124 71.6647L65.254 73.1463L67.5207 76.2952L66.7345 75.2114L64.5228 76.8143L70.3346 84.8884L72.5515 83.2926L72.5543 83.2966L72.5583 83.2938L74.2709 85.6731L74.267 85.6759L74.2698 85.6799L69.5111 89.1053L69.5083 89.1013L69.5043 89.1041L65.0543 82.922L62.9968 84.403L62.9939 84.399L62.99 84.4019L61.3943 82.185L59.8162 83.3209L61.4119 85.5378L61.408 85.5406L61.4108 85.5446L59.194 87.1403L60.675 89.1979L60.671 89.2007L60.6745 89.2055L58.6161 90.6871L59.8661 92.4236L61.9245 90.942L61.9273 90.946L61.9313 90.9431L63.6439 93.3225L63.64 93.3253L63.6428 93.3293L59.0427 96.6405L59.0398 96.6366L59.0358 96.6394L52.9873 88.2364L50.9297 89.7175L50.9269 89.7135L50.9221 89.7169L49.4411 87.6594L47.3835 89.1404L47.3801 89.1357L47.3762 89.1385L45.781 86.9225L43.7227 88.4041L43.7198 88.4001L43.7158 88.403L42.2445 86.3589L40.0284 87.954L40.0256 87.9501L40.0208 87.9535L38.5295 85.8817L36.472 87.3627L36.4691 87.3587L36.4651 87.3616L27.1025 74.3545L27.1065 74.3516L27.1036 74.3476L29.483 72.635L29.4858 72.6389L29.4898 72.6361L32.4553 76.7559L34.6722 75.1602L34.6756 75.165L34.6795 75.1621L36.1606 77.2197L38.2181 75.7386L38.221 75.7426L38.225 75.7398L39.8207 77.9566L43.6195 75.2222L42.1379 73.1638L42.1419 73.161L42.139 73.157L44.2116 71.6651L42.6165 69.4491L42.6205 69.4462L42.617 69.4414L45.7707 67.1714L44.2897 65.1138L44.2937 65.111L44.2908 65.107L47.4596 62.8261L45.978 60.7678L45.9819 60.7649L45.9791 60.761L48.1951 59.1658L38.2654 45.3708L38.2694 45.368L38.266 45.3632L40.3243 43.8816L38.8433 41.8241L38.8472 41.8212L38.8444 41.8173L55.9745 29.4868L55.9774 29.4908ZM43.0758 43.3462L43.0786 43.3502L43.0746 43.353L45.0155 46.0494L45.0195 46.0465L45.0223 46.0505L47.7187 44.1096L47.7159 44.1057L47.7198 44.1028L45.7789 41.4064L45.775 41.4093L45.7721 41.4053L43.0758 43.3462Z" fill="white"/>
<defs>
<filter id="filter0_f_1080_396" x="0" y="0" width="100.122" height="124.749" filterUnits="userSpaceOnUse" color-interpolation-filters="sRGB">
<feFlood flood-opacity="0" result="BackgroundImageFix"/>
<feBlend mode="normal" in="SourceGraphic" in2="BackgroundImageFix" result="shape"/>
<feGaussianBlur stdDeviation="10.5" result="effect1_foregroundBlur_1080_396"/>
</filter>
<filter id="filter1_f_1080_396" x="7" y="7" width="86.1221" height="110.749" filterUnits="userSpaceOnUse" color-interpolation-filters="sRGB">
<feFlood flood-opacity="0" result="BackgroundImageFix"/>
<feBlend mode="normal" in="SourceGraphic" in2="BackgroundImageFix" result="shape"/>
<feGaussianBlur stdDeviation="7" result="effect1_foregroundBlur_1080_396"/>
</filter>
<linearGradient id="paint0_linear_1080_396" x1="41.2275" y1="104.388" x2="65.5436" y2="27.6759" gradientUnits="userSpaceOnUse">
<stop stop-color="#A50080"/>
<stop offset="1" stop-color="#00A29A"/>
</linearGradient>
<linearGradient id="paint1_linear_1080_396" x1="41.2275" y1="104.388" x2="65.5436" y2="27.6759" gradientUnits="userSpaceOnUse">
<stop stop-color="#A50080"/>
<stop offset="1" stop-color="#00A29A"/>
</linearGradient>
</defs>
</svg>
