<svg width="413" height="449" viewBox="0 0 413 449" fill="none" xmlns="http://www.w3.org/2000/svg">
<g filter="url(#filter0_f_1080_431)">
<path d="M143.51 191.697L150.445 195.682V199.667C155.408 193.474 161.317 190.377 168.172 190.377C171.813 190.377 174.973 191.147 177.65 192.686C180.328 194.225 182.524 196.552 184.238 199.667C186.737 196.552 189.432 194.225 192.324 192.686C195.216 191.147 198.304 190.377 201.589 190.377C205.766 190.377 209.3 191.257 212.192 193.016C215.084 194.738 217.244 197.285 218.672 200.657C219.708 203.149 220.225 207.18 220.225 212.75V257.001H205.177V216.707C205.177 210.917 204.659 207.18 203.624 205.494C202.231 203.295 200.089 202.196 197.197 202.196C195.091 202.196 193.109 202.855 191.253 204.175C189.396 205.494 188.058 207.436 187.236 210.001C186.415 212.53 186.005 216.543 186.005 222.039V257.001H170.956V218.082C170.956 212.402 170.689 208.737 170.153 207.088C169.617 205.439 168.778 204.211 167.636 203.405C166.529 202.599 165.012 202.196 163.084 202.196C160.763 202.196 158.675 202.837 156.818 204.12C154.962 205.402 153.623 207.253 152.802 209.671C152.016 212.09 151.624 216.103 151.624 221.71V257.001H136.575V199.667C136.575 199.667 142.089 193.215 143.51 191.697Z" fill="url(#paint0_linear_1080_431)"/>
<path d="M251.74 268.569H240.551C234.637 261.445 230.134 254.044 227.042 246.365C223.95 238.687 222.404 231.254 222.404 224.069C222.404 215.157 224.317 206.722 228.144 198.766C231.468 191.858 235.681 185.49 240.783 179.662H251.914C246.619 189.006 242.966 196.962 240.956 203.531C238.985 210.068 238 217.007 238 224.347C238 229.404 238.579 234.585 239.739 239.889C240.937 245.194 242.56 250.236 244.609 255.016C245.962 258.161 248.339 262.679 251.74 268.569Z" fill="url(#paint1_linear_1080_431)"/>
<path d="M259.74 268.569C262.948 263.08 265.209 258.87 266.524 255.941C267.838 253.011 269.055 249.634 270.176 245.81C271.297 241.986 272.128 238.363 272.669 234.94C273.21 231.486 273.481 227.955 273.481 224.347C273.481 217.007 272.495 210.068 270.524 203.531C268.553 196.962 264.92 189.006 259.625 179.662H270.698C276.534 186.292 281.056 193.323 284.264 200.755C287.511 208.187 289.134 215.727 289.134 223.375C289.134 229.821 287.859 236.728 285.308 244.099C282.409 252.363 277.636 260.52 270.988 268.569H259.74Z" fill="url(#paint2_linear_1080_431)"/>
</g>
<g filter="url(#filter1_f_1080_431)">
<path d="M143.51 191.697L150.445 195.682V199.667C155.408 193.474 161.317 190.377 168.172 190.377C171.813 190.377 174.973 191.147 177.65 192.686C180.328 194.225 182.524 196.552 184.238 199.667C186.737 196.552 189.432 194.225 192.324 192.686C195.216 191.147 198.304 190.377 201.589 190.377C205.766 190.377 209.3 191.257 212.192 193.016C215.084 194.738 217.244 197.285 218.672 200.657C219.708 203.149 220.225 207.18 220.225 212.75V257.001H205.177V216.707C205.177 210.917 204.659 207.18 203.624 205.494C202.231 203.295 200.089 202.196 197.197 202.196C195.091 202.196 193.109 202.855 191.253 204.175C189.396 205.494 188.058 207.436 187.236 210.001C186.415 212.53 186.005 216.543 186.005 222.039V257.001H170.956V218.082C170.956 212.402 170.689 208.737 170.153 207.088C169.617 205.439 168.778 204.211 167.636 203.405C166.529 202.599 165.012 202.196 163.084 202.196C160.763 202.196 158.675 202.837 156.818 204.12C154.962 205.402 153.623 207.253 152.802 209.671C152.016 212.09 151.624 216.103 151.624 221.71V257.001H136.575V199.667C136.575 199.667 142.089 193.215 143.51 191.697Z" fill="white"/>
<path d="M251.994 268.569H240.805C234.892 261.445 230.389 254.044 227.297 246.365C224.205 238.687 222.659 231.254 222.659 224.069C222.659 215.157 224.572 206.722 228.398 198.766C231.722 191.858 235.935 185.49 241.037 179.662H252.168C246.873 189.006 243.221 196.962 241.211 203.531C239.24 210.068 238.254 217.007 238.254 224.347C238.254 229.404 238.834 234.585 239.993 239.889C241.192 245.194 242.815 250.236 244.863 255.016C246.216 258.161 248.593 262.679 251.994 268.569Z" fill="white"/>
<path d="M259.995 268.569C263.203 263.08 265.464 258.87 266.778 255.941C268.092 253.011 269.31 249.634 270.43 245.81C271.551 241.986 272.382 238.363 272.923 234.94C273.464 231.486 273.735 227.955 273.735 224.347C273.735 217.007 272.749 210.068 270.778 203.531C268.807 196.962 265.174 189.006 259.879 179.662H270.952C276.788 186.292 281.31 193.323 284.518 200.755C287.765 208.187 289.388 215.727 289.388 223.375C289.388 229.821 288.113 236.728 285.562 244.099C282.663 252.363 277.89 260.52 271.242 268.569H259.995Z" fill="white"/>
</g>
<g filter="url(#filter2_f_1080_431)">
<path d="M202.801 86.4431C204.972 85.1854 207.649 85.1854 209.82 86.4431L323.631 152.387C325.791 153.639 327.121 155.947 327.121 158.444V290.376C327.121 292.873 325.791 295.18 323.631 296.432L209.82 362.376C207.649 363.634 204.972 363.634 202.801 362.376L88.9906 296.432C86.8301 295.18 85.5 292.873 85.5 290.376V158.444C85.5 155.947 86.8301 153.639 88.9906 152.387L202.801 86.4431Z" stroke="url(#paint3_linear_1080_431)" stroke-width="43" stroke-miterlimit="4.13936"/>
</g>
<g filter="url(#filter3_f_1080_431)">
<path d="M202.801 86.4431C204.972 85.1854 207.649 85.1854 209.82 86.4431L323.631 152.387C325.791 153.639 327.121 155.947 327.121 158.444V290.376C327.121 292.873 325.791 295.18 323.631 296.432L209.82 362.376C207.649 363.634 204.972 363.634 202.801 362.376L88.9906 296.432C86.8301 295.18 85.5 292.873 85.5 290.376V158.444C85.5 155.947 86.8301 153.639 88.9906 152.387L202.801 86.4431Z" stroke="url(#paint4_linear_1080_431)" stroke-width="43" stroke-miterlimit="4.13936"/>
</g>
<g filter="url(#filter4_f_1080_431)">
<path d="M202.801 86.4431C204.972 85.1854 207.649 85.1854 209.82 86.4431L323.631 152.387C325.791 153.639 327.121 155.947 327.121 158.444V290.376C327.121 292.873 325.791 295.18 323.631 296.432L209.82 362.376C207.649 363.634 204.972 363.634 202.801 362.376L88.9906 296.432C86.8301 295.18 85.5 292.873 85.5 290.376V158.444C85.5 155.947 86.8301 153.639 88.9906 152.387L202.801 86.4431Z" stroke="white" stroke-width="11"/>
</g>
<g filter="url(#filter5_f_1080_431)">
<path d="M202.801 86.4431C204.972 85.1854 207.649 85.1854 209.82 86.4431L323.631 152.387C325.791 153.639 327.121 155.947 327.121 158.444V290.376C327.121 292.873 325.791 295.18 323.631 296.432L209.82 362.376C207.649 363.634 204.972 363.634 202.801 362.376L88.9906 296.432C86.8301 295.18 85.5 292.873 85.5 290.376V158.444C85.5 155.947 86.8301 153.639 88.9906 152.387L202.801 86.4431Z" stroke="white" stroke-width="11"/>
</g>
<path d="M143.51 191.697L150.445 195.682V199.667C155.408 193.474 161.317 190.377 168.172 190.377C171.813 190.377 174.973 191.147 177.65 192.686C180.328 194.225 182.524 196.552 184.238 199.667C186.737 196.552 189.432 194.225 192.324 192.686C195.216 191.147 198.304 190.377 201.589 190.377C205.766 190.377 209.3 191.257 212.192 193.016C215.084 194.738 217.244 197.285 218.672 200.657C219.708 203.149 220.225 207.18 220.225 212.75V257.001H205.177V216.707C205.177 210.917 204.659 207.18 203.624 205.494C202.231 203.295 200.089 202.196 197.197 202.196C195.091 202.196 193.109 202.855 191.253 204.175C189.396 205.494 188.058 207.436 187.236 210.001C186.415 212.53 186.005 216.543 186.005 222.039V257.001H170.956V218.082C170.956 212.402 170.689 208.737 170.153 207.088C169.617 205.439 168.778 204.211 167.636 203.405C166.529 202.599 165.012 202.196 163.084 202.196C160.763 202.196 158.675 202.837 156.818 204.12C154.962 205.402 153.623 207.253 152.802 209.671C152.016 212.09 151.624 216.103 151.624 221.71V257.001H136.575V199.667C136.575 199.667 142.089 193.215 143.51 191.697Z" fill="white"/>
<path d="M251.74 268.569H240.551C234.637 261.445 230.134 254.044 227.042 246.365C223.95 238.687 222.404 231.254 222.404 224.069C222.404 215.157 224.317 206.722 228.144 198.766C231.468 191.858 235.681 185.49 240.783 179.662H251.914C246.619 189.006 242.966 196.962 240.956 203.531C238.985 210.068 238 217.007 238 224.347C238 229.404 238.579 234.585 239.739 239.889C240.937 245.194 242.56 250.236 244.609 255.016C245.962 258.161 248.339 262.679 251.74 268.569Z" fill="white"/>
<path d="M259.74 268.569C262.948 263.08 265.209 258.87 266.524 255.941C267.838 253.011 269.055 249.634 270.176 245.81C271.297 241.986 272.128 238.363 272.669 234.94C273.21 231.486 273.481 227.955 273.481 224.347C273.481 217.007 272.495 210.068 270.524 203.531C268.553 196.962 264.92 189.006 259.625 179.662H270.698C276.534 186.292 281.056 193.323 284.264 200.755C287.511 208.187 289.134 215.727 289.134 223.375C289.134 229.821 287.859 236.728 285.308 244.099C282.409 252.363 277.636 260.52 270.988 268.569H259.74Z" fill="white"/>
<defs>
<filter id="filter0_f_1080_431" x="134.575" y="177.662" width="156.559" height="92.9077" filterUnits="userSpaceOnUse" color-interpolation-filters="sRGB">
<feFlood flood-opacity="0" result="BackgroundImageFix"/>
<feBlend mode="normal" in="SourceGraphic" in2="BackgroundImageFix" result="shape"/>
<feGaussianBlur stdDeviation="1" result="effect1_foregroundBlur_1080_431"/>
</filter>
<filter id="filter1_f_1080_431" x="129.575" y="172.662" width="166.813" height="102.908" filterUnits="userSpaceOnUse" color-interpolation-filters="sRGB">
<feFlood flood-opacity="0" result="BackgroundImageFix"/>
<feBlend mode="normal" in="SourceGraphic" in2="BackgroundImageFix" result="shape"/>
<feGaussianBlur stdDeviation="3.5" result="effect1_foregroundBlur_1080_431"/>
</filter>
<filter id="filter2_f_1080_431" x="0" y="0" width="412.621" height="448.82" filterUnits="userSpaceOnUse" color-interpolation-filters="sRGB">
<feFlood flood-opacity="0" result="BackgroundImageFix"/>
<feBlend mode="normal" in="SourceGraphic" in2="BackgroundImageFix" result="shape"/>
<feGaussianBlur stdDeviation="32" result="effect1_foregroundBlur_1080_431"/>
</filter>
<filter id="filter3_f_1080_431" x="34" y="34" width="344.621" height="380.82" filterUnits="userSpaceOnUse" color-interpolation-filters="sRGB">
<feFlood flood-opacity="0" result="BackgroundImageFix"/>
<feBlend mode="normal" in="SourceGraphic" in2="BackgroundImageFix" result="shape"/>
<feGaussianBlur stdDeviation="15" result="effect1_foregroundBlur_1080_431"/>
</filter>
<filter id="filter4_f_1080_431" x="69" y="69" width="274.621" height="310.82" filterUnits="userSpaceOnUse" color-interpolation-filters="sRGB">
<feFlood flood-opacity="0" result="BackgroundImageFix"/>
<feBlend mode="normal" in="SourceGraphic" in2="BackgroundImageFix" result="shape"/>
<feGaussianBlur stdDeviation="5.5" result="effect1_foregroundBlur_1080_431"/>
</filter>
<filter id="filter5_f_1080_431" x="79" y="79" width="254.621" height="290.82" filterUnits="userSpaceOnUse" color-interpolation-filters="sRGB">
<feFlood flood-opacity="0" result="BackgroundImageFix"/>
<feBlend mode="normal" in="SourceGraphic" in2="BackgroundImageFix" result="shape"/>
<feGaussianBlur stdDeviation="0.5" result="effect1_foregroundBlur_1080_431"/>
</filter>
<linearGradient id="paint0_linear_1080_431" x1="178.4" y1="190.377" x2="178.4" y2="257.001" gradientUnits="userSpaceOnUse">
<stop stop-color="#A50080"/>
<stop offset="1" stop-color="#00A29A"/>
</linearGradient>
<linearGradient id="paint1_linear_1080_431" x1="255.769" y1="179.662" x2="255.769" y2="268.569" gradientUnits="userSpaceOnUse">
<stop stop-color="#A50080"/>
<stop offset="1" stop-color="#00A29A"/>
</linearGradient>
<linearGradient id="paint2_linear_1080_431" x1="255.769" y1="179.662" x2="255.769" y2="268.569" gradientUnits="userSpaceOnUse">
<stop stop-color="#A50080"/>
<stop offset="1" stop-color="#00A29A"/>
</linearGradient>
<linearGradient id="paint3_linear_1080_431" x1="206.311" y1="84.4097" x2="206.311" y2="364.41" gradientUnits="userSpaceOnUse">
<stop stop-color="#00A29A"/>
<stop offset="1" stop-color="#A50080"/>
</linearGradient>
<linearGradient id="paint4_linear_1080_431" x1="206.311" y1="84.4097" x2="206.311" y2="364.41" gradientUnits="userSpaceOnUse">
<stop stop-color="#00A29A"/>
<stop offset="1" stop-color="#A50080"/>
</linearGradient>
</defs>
</svg>
