<svg width="68" height="68" viewBox="0 0 68 68" fill="none" xmlns="http://www.w3.org/2000/svg">
<path d="M67.9318 34C67.9318 52.7567 52.7038 68 33.9659 68C15.2281 68 0 52.7567 0 34C0 15.2433 15.2281 0 33.9659 0C36.0322 0 38.1268 0.198333 40.1364 0.566667C41.6649 0.85 42.6838 2.32333 42.4008 3.85333C42.1177 5.38333 40.6459 6.40333 39.1174 6.12C37.4474 5.80833 35.6925 5.66667 33.9659 5.66667C18.3699 5.66667 5.66099 18.3883 5.66099 34C5.66099 49.6117 18.3699 62.3333 33.9659 62.3333C49.5619 62.3333 62.2709 49.6117 62.2709 34C62.2709 32.2717 62.101 30.5433 61.818 28.8433C61.5349 27.3133 62.5539 25.84 64.0824 25.5567C65.6391 25.2733 67.0827 26.2933 67.3657 27.8233C67.7337 29.835 67.9318 31.9317 67.9318 34ZM36.4001 17.17C37.9569 17.3967 39.3722 16.32 39.5986 14.7617C39.825 13.2033 38.7495 11.7867 37.1927 11.56C36.1171 11.4183 35.0415 11.3333 33.9659 11.3333C21.4834 11.3333 11.322 21.505 11.322 34C11.322 46.495 21.4834 56.6667 33.9659 56.6667C46.4484 56.6667 56.6099 46.495 56.6099 34C56.6099 32.9233 56.525 31.8467 56.3834 30.77C56.157 29.2117 54.7417 28.135 53.185 28.3617C51.6282 28.5883 50.5526 30.005 50.7791 31.5633C50.8923 32.3567 50.9489 33.1783 50.9489 34C50.9489 43.3783 43.3349 51 33.9659 51C24.597 51 16.983 43.3783 16.983 34C16.983 24.6217 24.597 17 33.9659 17C34.7868 17 35.6076 17.0567 36.4001 17.17ZM30.4278 25.7833C29.3805 24.6217 27.5973 24.5083 26.4368 25.5567C24.0309 27.71 22.6723 30.7983 22.6723 34C22.6723 40.2617 27.7388 45.3333 33.9942 45.3333C37.221 45.3333 40.2779 43.945 42.4291 41.565C43.4764 40.4033 43.3632 38.6183 42.2027 37.57C41.0422 36.5217 39.2589 36.635 38.2117 37.7967C37.1361 38.9867 35.6076 39.695 33.9942 39.695C30.8807 39.695 28.3332 37.145 28.3332 34.0283C28.3332 32.4133 29.0126 30.8833 30.2297 29.8067C31.3902 28.7583 31.5034 26.9733 30.4561 25.8117L30.4278 25.7833ZM34.8151 29.1833C33.7112 30.2883 33.7112 32.0733 34.8151 33.1783C35.3812 33.745 36.0888 34 36.8247 34C37.5607 34 38.2683 33.7167 38.8344 33.1783L52.166 19.8333H59.497C60.2612 19.8333 60.9688 19.5217 61.5066 19.0117L67.1676 13.345C67.9885 12.5233 68.2149 11.305 67.7903 10.2567C67.3658 9.20833 66.3185 8.5 65.1863 8.5H59.5253V2.83333C59.5253 1.7 58.846 0.651667 57.7704 0.226667C56.6948 -0.226667 55.506 0.0283334 54.6851 0.85L49.0242 6.51667C48.4864 7.055 48.2033 7.76333 48.2033 8.52833V15.8667L34.8717 29.2117L34.8151 29.1833Z" fill="white"/>
</svg>
